<?xml version="1.0" encoding="UTF-8"?>
<svg version="1.1" xmlns="http://www.w3.org/2000/svg" width="500" height="500">
<path d="M0 0 C2.17198187 0.00315589 4.34258965 -0.02039208 6.5144043 -0.0456543 C16.4721832 -0.08995359 25.64584496 1.16429554 35.37182617 3.31567383 C37.23327271 3.71206055 37.23327271 3.71206055 39.13232422 4.11645508 C45.12040964 5.40893203 50.71442426 6.99643016 56.37182617 9.31567383 C58.07145508 9.94795898 58.07145508 9.94795898 59.80541992 10.59301758 C67.02620359 13.30912607 73.45433861 16.31233655 79.87963867 20.65942383 C82.84818878 22.63225336 85.92833007 24.27437757 89.10620117 25.88208008 C91.37182617 27.31567383 91.37182617 27.31567383 92.70629883 28.74359131 C96.19906461 32.35699 98.80696605 33.73239158 103.85717773 34.04101562 C105.99218738 34.06160305 108.12765065 34.05117957 110.26245117 34.01489258 C111.97304718 34.02477959 111.97304718 34.02477959 113.71820068 34.03486633 C117.35334079 34.05230683 120.98676823 34.03040905 124.62182617 34.00317383 C128.24226024 33.99182526 131.86217874 33.9893251 135.48260498 34.00361633 C137.72988409 34.01092477 139.97728401 34.00307276 142.22442627 33.97721863 C152.901449 33.98162257 162.50616607 35.64665523 170.37182617 43.31567383 C174.94461978 48.60005011 177.55362666 53.75483949 177.78121948 60.83648682 C177.81928774 61.93529552 177.857356 63.03410423 177.89657784 64.16621017 C177.92692053 65.36441013 177.95726322 66.56261009 177.98852539 67.79711914 C178.0261241 69.07204853 178.0637228 70.34697792 178.10246086 71.66054153 C178.53995768 87.45883823 178.51853625 103.26343056 178.50615168 119.06643963 C178.50356642 123.41695396 178.50598151 127.76746651 178.50753784 132.11798096 C178.50933809 139.39237863 178.50700633 146.66676601 178.50219727 153.94116211 C178.49671756 162.32639398 178.49855257 170.71160167 178.50402367 179.09683299 C178.5085676 186.35524983 178.50920031 193.61365942 178.506585 200.87207723 C178.50503452 205.18283692 178.50479535 209.49358524 178.50812149 213.80434418 C178.51102033 217.83970207 178.5089877 221.87502869 178.50322723 225.91038322 C178.50191218 227.38372941 178.50227226 228.85707825 178.5044899 230.33042336 C178.53292681 251.14827117 178.53292681 251.14827117 175.43432617 256.69067383 C175.09530273 257.3171582 174.7562793 257.94364258 174.40698242 258.58911133 C173.44418056 260.19499217 172.41044074 261.75775197 171.37182617 263.31567383 C170.71182617 263.31567383 170.05182617 263.31567383 169.37182617 263.31567383 C169.37182617 263.97567383 169.37182617 264.63567383 169.37182617 265.31567383 C167.86791992 266.53442383 167.86791992 266.53442383 165.80932617 267.81567383 C165.14803711 268.23848633 164.48674805 268.66129883 163.80541992 269.09692383 C156.91827378 272.54602431 150.45828426 272.59633067 142.89135742 272.58911133 C140.65372207 272.60938499 138.41609189 272.63023546 136.1784668 272.65161133 C132.66938888 272.67427756 129.16051517 272.69071332 125.65136719 272.6965332 C122.25182775 272.70602846 118.85319461 272.73975012 115.45385742 272.77661133 C114.40277298 272.77156586 113.35168854 272.76652039 112.26875305 272.76132202 C106.60061942 272.70036009 106.60061942 272.70036009 101.80419922 275.34936523 C101.33151611 275.99824707 100.85883301 276.64712891 100.37182617 277.31567383 C99.71182617 277.31567383 99.05182617 277.31567383 98.37182617 277.31567383 C98.37182617 277.97567383 98.37182617 278.63567383 98.37182617 279.31567383 C95.20836074 281.87814687 91.74747605 284.04286411 88.37182617 286.31567383 C87.71182617 286.80293945 87.05182617 287.29020508 86.37182617 287.79223633 C65.70450803 302.70937321 36.73385068 311.52000247 11.37182617 312.31567383 C10.69812988 312.34145508 10.02443359 312.36723633 9.33032227 312.39379883 C-11.49079322 313.10396265 -30.95010065 310.10761201 -50.62817383 303.31567383 C-51.86567383 302.8902832 -53.10317383 302.46489258 -54.37817383 302.02661133 C-61.52458794 299.41412504 -68.08352333 296.18150905 -74.62817383 292.31567383 C-75.36422852 291.88351562 -76.1002832 291.45135742 -76.85864258 291.00610352 C-79.35107427 289.53699533 -81.83464616 288.05395185 -84.31567383 286.56567383 C-85.53903442 285.83936768 -85.53903442 285.83936768 -86.78710938 285.09838867 C-87.54290283 284.63899902 -88.29869629 284.17960937 -89.07739258 283.70629883 C-90.10352661 283.08803223 -90.10352661 283.08803223 -91.15039062 282.45727539 C-91.63805908 282.08054687 -92.12572754 281.70381836 -92.62817383 281.31567383 C-92.62817383 280.65567383 -92.62817383 279.99567383 -92.62817383 279.31567383 C-93.52536133 278.88254883 -93.52536133 278.88254883 -94.44067383 278.44067383 C-96.62817383 277.31567383 -96.62817383 277.31567383 -99.62817383 275.31567383 C-99.62817383 274.65567383 -99.62817383 273.99567383 -99.62817383 273.31567383 C-100.24267899 273.3120282 -100.85718414 273.30838257 -101.49031067 273.30462646 C-107.93173991 273.26256035 -114.37247253 273.1930483 -120.81347656 273.1081543 C-123.21184291 273.08006547 -125.61029976 273.05879132 -128.00878906 273.04467773 C-131.47222828 273.02308073 -134.93459318 272.97634331 -138.39770508 272.92504883 C-139.98588799 272.92320587 -139.98588799 272.92320587 -141.6061554 272.92132568 C-150.56523866 272.74816741 -160.13715694 271.03051889 -166.62817383 264.31567383 C-166.62817383 263.65567383 -166.62817383 262.99567383 -166.62817383 262.31567383 C-167.28817383 262.31567383 -167.94817383 262.31567383 -168.62817383 262.31567383 C-172.98053938 255.2068101 -174.93451318 248.89462529 -174.88887024 240.46644592 C-174.89460856 239.32663014 -174.89460856 239.32663014 -174.90046281 238.16378778 C-174.91072931 235.63369701 -174.90681283 233.10383587 -174.90283203 230.57373047 C-174.907182 228.75318696 -174.9123661 226.93264529 -174.9183197 225.11210632 C-174.93168965 220.17823604 -174.93229064 215.24444246 -174.9297564 210.3105576 C-174.92868543 206.18779461 -174.93357326 202.06504706 -174.93836182 197.94228739 C-174.94944988 188.21460559 -174.94989822 178.4869624 -174.94384766 168.75927734 C-174.93780637 158.73167448 -174.95012446 148.70421188 -174.97141773 138.67663294 C-174.98904254 130.05901924 -174.99503373 121.44145016 -174.99177998 112.8238191 C-174.98996854 107.68050695 -174.99258959 102.53729489 -175.00649452 97.3939991 C-175.01908268 92.55697551 -175.01711936 87.72017039 -175.00408363 82.8831501 C-175.00172054 81.11107814 -175.00444295 79.33899076 -175.01270676 77.56693649 C-175.02319866 75.14166761 -175.01505446 72.71712858 -175.00239563 70.29188538 C-175.00976991 69.59624656 -175.0171442 68.90060775 -175.02474195 68.18388897 C-174.94940022 61.2888203 -172.65206894 54.91413659 -168.62817383 49.31567383 C-167.96817383 49.31567383 -167.30817383 49.31567383 -166.62817383 49.31567383 C-166.31879883 48.44942383 -166.31879883 48.44942383 -166.00317383 47.56567383 C-163.05543746 42.74210523 -157.91927314 40.65338336 -152.62817383 39.31567383 C-148.74440839 39.07245169 -144.87325693 39.13399842 -140.98364258 39.18286133 C-138.67439646 39.18205466 -136.36515038 39.17939258 -134.0559082 39.17504883 C-130.43475476 39.17701191 -126.81521598 39.19067963 -123.19433594 39.23657227 C-119.68563808 39.27577292 -116.17994576 39.26445229 -112.67114258 39.24536133 C-111.06289864 39.28389725 -111.06289864 39.28389725 -109.42216492 39.32321167 C-102.11458005 39.23044829 -98.55817105 37.46329112 -93.44628906 32.23135376 C-92.84631104 31.59917938 -92.24633301 30.967005 -91.62817383 30.31567383 C-88.83520508 28.28442383 -88.83520508 28.28442383 -86.44067383 26.81567383 C-85.52286133 26.25235352 -84.60504883 25.6890332 -83.65942383 25.10864258 C-78.02029432 21.77312654 -72.35522963 18.49814188 -66.62817383 15.31567383 C-65.8521582 14.87868164 -65.07614258 14.44168945 -64.27661133 13.99145508 C-60.07590403 11.74047846 -56.11730081 10.59858025 -51.41333008 9.80786133 C-50.82422852 9.64543945 -50.23512695 9.48301758 -49.62817383 9.31567383 C-49.29817383 8.65567383 -48.96817383 7.99567383 -48.62817383 7.31567383 C-46.72973633 6.78833008 -46.72973633 6.78833008 -44.25317383 6.37817383 C-40.5291949 5.7073294 -36.947452 4.87694234 -33.31567383 3.81567383 C-22.30832125 0.77426201 -11.36621051 -0.03435438 0 0 Z M-65.62817383 40.31567383 C-65.62817383 40.97567383 -65.62817383 41.63567383 -65.62817383 42.31567383 C-66.15411133 42.39043945 -66.68004883 42.46520508 -67.22192383 42.54223633 C-70.61607911 43.63321481 -73.27162717 45.61909945 -76.12817383 47.69067383 C-76.74184814 48.13330566 -77.35552246 48.5759375 -77.98779297 49.03198242 C-86.89570618 55.58289785 -96.18590952 63.26474615 -102.62817383 72.31567383 C-102.62817383 72.97567383 -102.62817383 73.63567383 -102.62817383 74.31567383 C-103.28817383 74.31567383 -103.94817383 74.31567383 -104.62817383 74.31567383 C-105.61817383 76.79067383 -105.61817383 76.79067383 -106.62817383 79.31567383 C-107.28817383 79.31567383 -107.94817383 79.31567383 -108.62817383 79.31567383 C-110.94931579 83.33697691 -113.25027143 87.36893732 -115.5378418 91.40942383 C-116.50915923 93.10759815 -117.50637224 94.7909011 -118.50708008 96.47192383 C-123.78556759 105.63547262 -126.92801793 115.14423349 -129.62817383 125.31567383 C-129.80896484 125.9848584 -129.98975586 126.65404297 -130.17602539 127.34350586 C-135.29682138 147.29221309 -134.35320316 170.37686472 -129.62817383 190.31567383 C-129.34973633 191.52610352 -129.07129883 192.7365332 -128.78442383 193.98364258 C-125.55915616 206.50935884 -119.75381895 217.62670857 -113.31567383 228.75317383 C-112.66671143 229.88203003 -112.66671143 229.88203003 -112.00463867 231.03369141 C-110.93876469 232.83106811 -109.79073583 234.57926952 -108.62817383 236.31567383 C-107.96817383 236.31567383 -107.30817383 236.31567383 -106.62817383 236.31567383 C-106.38067383 237.03754883 -106.13317383 237.75942383 -105.87817383 238.50317383 C-104.50547791 241.59173964 -102.90464087 243.825788 -100.62817383 246.31567383 C-99.96817383 246.31567383 -99.30817383 246.31567383 -98.62817383 246.31567383 C-98.62817383 246.97567383 -98.62817383 247.63567383 -98.62817383 248.31567383 C-97.96817383 248.31567383 -97.30817383 248.31567383 -96.62817383 248.31567383 C-95.63817383 250.29567383 -95.63817383 250.29567383 -94.62817383 252.31567383 C-93.96817383 252.31567383 -93.30817383 252.31567383 -92.62817383 252.31567383 C-92.62817383 252.97567383 -92.62817383 253.63567383 -92.62817383 254.31567383 C-91.96817383 254.31567383 -91.30817383 254.31567383 -90.62817383 254.31567383 C-90.62817383 254.97567383 -90.62817383 255.63567383 -90.62817383 256.31567383 C-89.96817383 256.31567383 -89.30817383 256.31567383 -88.62817383 256.31567383 C-88.62817383 256.97567383 -88.62817383 257.63567383 -88.62817383 258.31567383 C-86.18193792 260.57616341 -83.3956562 262.43983686 -80.69067383 264.37817383 C-79.87816162 264.96091064 -79.06564941 265.54364746 -78.22851562 266.14404297 C-70.39631519 271.65031262 -62.29385314 276.26074226 -53.62817383 280.31567383 C-52.68361328 280.7579834 -52.68361328 280.7579834 -51.7199707 281.20922852 C-35.26426494 288.72763457 -17.80641032 291.50779728 0.17504883 291.5559082 C2.33870205 291.56552658 4.50136728 291.59656932 6.66479492 291.62817383 C37.70151253 291.86502768 69.13011702 278.74020611 92.37182617 258.31567383 C92.37182617 257.65567383 92.37182617 256.99567383 92.37182617 256.31567383 C93.03182617 256.31567383 93.69182617 256.31567383 94.37182617 256.31567383 C94.37182617 255.65567383 94.37182617 254.99567383 94.37182617 254.31567383 C94.92870117 254.08879883 95.48557617 253.86192383 96.05932617 253.62817383 C99.03342205 251.94017347 101.09191482 249.84890866 103.37182617 247.31567383 C103.37182617 246.65567383 103.37182617 245.99567383 103.37182617 245.31567383 C104.03182617 245.31567383 104.69182617 245.31567383 105.37182617 245.31567383 C106.03182617 243.66567383 106.69182617 242.01567383 107.37182617 240.31567383 C108.03182617 240.31567383 108.69182617 240.31567383 109.37182617 240.31567383 C111.01859879 238.01386526 112.52303137 235.72605484 113.99682617 233.31567383 C114.44195557 232.59017334 114.88708496 231.86467285 115.34570312 231.1171875 C134.50373576 199.44051907 142.53277654 163.86199556 134.37182617 127.31567383 C130.72790946 113.46879031 125.6969404 100.61140129 118.37182617 88.31567383 C117.03195025 85.98603739 115.7026488 83.65050202 114.37182617 81.31567383 C113.71182617 81.31567383 113.05182617 81.31567383 112.37182617 81.31567383 C111.96963867 80.48036133 111.96963867 80.48036133 111.55932617 79.62817383 C110.26283121 77.10342049 108.94706294 74.67852898 107.37182617 72.31567383 C106.71182617 72.31567383 106.05182617 72.31567383 105.37182617 72.31567383 C105.09975342 71.72197998 104.82768066 71.12828613 104.54736328 70.51660156 C99.10560853 60.32814485 87.42368727 52.23107695 78.12182617 45.87817383 C77.30012939 45.31686768 76.47843262 44.75556152 75.63183594 44.17724609 C71.36846035 41.15008671 71.36846035 41.15008671 66.37182617 40.31567383 C66.37182617 39.65567383 66.37182617 38.99567383 66.37182617 38.31567383 C48.28808544 30.57197209 48.28808544 30.57197209 29.37182617 25.31567383 C27.86555664 24.98116211 27.86555664 24.98116211 26.32885742 24.63989258 C-5.75120416 18.78179438 -36.94417202 26.01597971 -65.62817383 40.31567383 Z M133.49682617 59.56567383 C132.00431544 63.21403341 131.69285943 66.46819564 132.37182617 70.31567383 C134.59319181 74.6761323 136.80749646 77.44844804 141.37182617 79.31567383 C146.12154161 79.84341999 148.36404429 79.79104264 152.68432617 77.75317383 C156.3470007 74.43121321 158.18558333 71.28427182 158.50073242 66.26098633 C158.25286076 62.28001719 157.60049145 60.59247917 154.99682617 57.44067383 C150.98834924 54.19571631 148.69127217 52.85431502 143.43432617 52.99926758 C139.0106939 53.67789298 136.27106653 56.2365854 133.49682617 59.56567383 Z " fill="#3F9CD0" transform="translate(250.628173828125,101.684326171875)"/>
<path d="M0 0 C0.66 0.33 1.32 0.66 2 1 C1.04953896 4.58250701 0.13491255 7.72455355 -1.5 11.0625 C-10.10256928 30.66937111 -4.82594883 58.13172497 2.30078125 77.54296875 C4.21796187 81.44343966 6.50288769 84.53509719 9.25 87.875 C10.23048965 89.09633739 11.21095838 90.31769157 12.19140625 91.5390625 C13.12740969 92.69286613 14.0635957 93.84652168 15 95 C16.40159811 96.74538633 17.79849741 98.49457341 19.1875 100.25 C19.73792969 100.93578125 20.28835937 101.6215625 20.85546875 102.328125 C22 104 22 104 22 106 C22.66 106 23.32 106 24 106 C25.29590571 107.59381506 26.51152694 109.25324782 27.6875 110.9375 C30.9051417 115.49043359 34.24101623 119.89125441 37.75 124.22265625 C39 126 39 126 39 128 C39.66 128 40.32 128 41 128 C45 133.41176471 45 133.41176471 45 136 C45.66 136 46.32 136 47 136 C47 136.66 47 137.32 47 138 C47.99 138.33 48.98 138.66 50 139 C51.25390625 140.64453125 51.25390625 140.64453125 52.5625 142.8125 C55.86101625 148.02682114 59.82238095 152.5236451 63.92578125 157.10546875 C66.14924859 160.20827346 66.70445618 162.23599858 67 166 C51.47759777 166.29522086 36.55014858 163.28233655 22 158 C20.9790625 157.63132812 19.958125 157.26265625 18.90625 156.8828125 C4.86041226 151.40795639 -7.34384513 143.4408038 -19 134 C-20.16789062 133.17628906 -20.16789062 133.17628906 -21.359375 132.3359375 C-22.17148438 131.67464844 -22.17148438 131.67464844 -23 131 C-23 130.34 -23 129.68 -23 129 C-23.66 129 -24.32 129 -25 129 C-25 128.34 -25 127.68 -25 127 C-25.66 127 -26.32 127 -27 127 C-27 126.34 -27 125.68 -27 125 C-27.66 125 -28.32 125 -29 125 C-30.7265625 123.1015625 -30.7265625 123.1015625 -32.625 120.625 C-33.25664062 119.81289063 -33.88828125 119.00078125 -34.5390625 118.1640625 C-36 116 -36 116 -36 114 C-36.66 114 -37.32 114 -38 114 C-39.66500995 111.65620172 -41.19213493 109.32477049 -42.6875 106.875 C-43.13375732 106.14869385 -43.58001465 105.4223877 -44.03979492 104.67407227 C-60.71325258 77.1785968 -60.71325258 77.1785968 -60 63 C-59.34 63 -58.68 63 -58 63 C-58 62.34 -58 61.68 -58 61 C-57.34 61 -56.68 61 -56 61 C-55.76410156 60.43539062 -55.52820313 59.87078125 -55.28515625 59.2890625 C-53.70765058 56.47928037 -51.75948714 54.60380949 -49.4375 52.375 C-46.30957946 49.48929319 -46.30957946 49.48929319 -44 46 C-43.34 46 -42.68 46 -42 46 C-42 45.34 -42 44.68 -42 44 C-41.34 44 -40.68 44 -40 44 C-40 43.34 -40 42.68 -40 42 C-39.34 42 -38.68 42 -38 42 C-38 41.34 -38 40.68 -38 40 C-37.34 40 -36.68 40 -36 40 C-35.773125 39.46375 -35.54625 38.9275 -35.3125 38.375 C-33.54429911 35.17539839 -31.46329797 32.70962777 -29 30 C-28.34 30 -27.68 30 -27 30 C-27 29.34 -27 28.68 -27 28 C-26.34 28 -25.68 28 -25 28 C-25 27.34 -25 26.68 -25 26 C-24.34 26 -23.68 26 -23 26 C-23 25.34 -23 24.68 -23 24 C-22.34 24 -21.68 24 -21 24 C-21 23.34 -21 22.68 -21 22 C-20.34 22 -19.68 22 -19 22 C-18.74347656 21.41476563 -18.48695313 20.82953125 -18.22265625 20.2265625 C-16.89437838 17.80765392 -15.43475199 16.26801128 -13.4375 14.375 C-10.85984611 11.95478041 -10.85984611 11.95478041 -9 9 C-8.34 9 -7.68 9 -7 9 C-7 8.34 -7 7.68 -7 7 C-6.34 7 -5.68 7 -5 7 C-5 6.34 -5 5.68 -5 5 C-4.34 5 -3.68 5 -3 5 C-3 4.34 -3 3.68 -3 3 C-2.34 3 -1.68 3 -1 3 C-0.67 2.01 -0.34 1.02 0 0 Z " fill="#388BC1" transform="translate(185,224)"/>
<path d="M0 0 C8.53547103 0.34524013 15.9538967 1.86219542 24 4.6875 C25.0523584 5.04980713 26.1047168 5.41211426 27.18896484 5.78540039 C34.46528393 8.34086172 41.35736151 11.04309017 48 15 C48.54769043 15.32581055 49.09538086 15.65162109 49.65966797 15.98730469 C61.50258006 23.11326281 72.96191859 31.44441357 82 42 C82 42.66 82 43.32 82 44 C82.66 44 83.32 44 84 44 C86.29985808 46.51213288 88.20618876 49.35810163 90.1875 52.125 C90.77176758 52.93799561 91.35603516 53.75099121 91.95800781 54.58862305 C104.58272254 72.50638451 104.58272254 72.50638451 105 81 C103.76171875 83.6015625 103.76171875 83.6015625 101.6875 86.625 C101.30086182 87.19911621 100.91422363 87.77323242 100.51586914 88.36474609 C99.58860482 89.74055319 98.65495395 91.11206618 97.71679688 92.48046875 C95.6786129 95.47166024 93.67360911 98.48437222 91.671875 101.5 C88.95965127 105.58381612 86.2451127 109.66600761 83.52046204 113.74154663 C82.41236713 115.39906922 81.30554289 117.05744106 80.19873047 118.71582031 C78.70379731 120.94875844 77.20389401 123.17739124 75.69580078 125.40136719 C74.97247559 126.47290039 74.24915039 127.54443359 73.50390625 128.6484375 C72.85365479 129.60669434 72.20340332 130.56495117 71.53344727 131.55224609 C69.87242668 133.98993976 69.87242668 133.98993976 69 137 C68.34 137 67.68 137 67 137 C66.74089844 137.71027344 66.48179687 138.42054688 66.21484375 139.15234375 C64.91972723 142.18816351 63.35397495 144.79245594 61.5625 147.5625 C60.96566406 148.49191406 60.36882812 149.42132813 59.75390625 150.37890625 C56.55606823 155.15785794 56.55606823 155.15785794 55 157 C54.34 157 53.68 157 53 157 C53.11734513 155.66597118 53.24442176 154.3327986 53.375 153 C53.44460938 152.2575 53.51421875 151.515 53.5859375 150.75 C54 148 54 148 55.00390625 144.296875 C61.01446323 120.71699761 52.32594545 93.21891645 40.38232422 72.89575195 C39.80240723 71.91952881 39.22249023 70.94330566 38.625 69.9375 C37.36969817 67.80474253 36.11449257 65.67192841 34.859375 63.5390625 C34.21935547 62.4552832 33.57933594 61.37150391 32.91992188 60.25488281 C29.88910016 55.11666878 26.88099146 49.96526861 23.875 44.8125 C23.01201294 43.33402588 23.01201294 43.33402588 22.1315918 41.82568359 C18.20387637 35.08817937 14.30742622 28.33335777 10.4375 21.5625 C9.96103027 20.72887939 9.48456055 19.89525879 8.99365234 19.03637695 C8.09693301 17.46352933 7.20293129 15.88912836 6.31201172 14.31298828 C5.40108227 12.70708102 4.48009369 11.10685458 3.55126953 9.51123047 C3.09220215 8.71217285 2.63313477 7.91311523 2.16015625 7.08984375 C1.74515869 6.37562256 1.33016113 5.66140137 0.90258789 4.92553711 C0 3 0 3 0 0 Z " fill="#A4CD8E" transform="translate(269,130)"/>
<path d="M0 0 C4.11796716 3.46492125 5.41377965 6.96327642 7 12 C7.54011719 12.89332031 8.08023438 13.78664062 8.63671875 14.70703125 C10 17 10 17 10 20 C10.66 20 11.32 20 12 20 C12.32871094 20.6084375 12.65742188 21.216875 12.99609375 21.84375 C16.06515322 27.49946934 19.16954626 33.13505252 22.3125 38.75 C22.68810059 39.42119873 23.06370117 40.09239746 23.45068359 40.78393555 C25.43768946 44.30955214 27.46894032 47.79983797 29.578125 51.25390625 C29.99408936 51.93549805 30.41005371 52.61708984 30.83862305 53.31933594 C31.63852229 54.62202443 32.44443901 55.92104211 33.25708008 57.21582031 C36 61.67375598 36 61.67375598 36 65 C36.66 65 37.32 65 38 65 C39.17176518 67.12232979 40.33754785 69.24757791 41.5 71.375 C41.83386719 71.97828125 42.16773438 72.5815625 42.51171875 73.203125 C45 77.7734375 45 77.7734375 45 80 C41.40775515 78.98968114 39.29887224 77.41689005 36.6875 74.875 C27.93153857 66.96000661 16.01930258 62.75497405 5 59.0234375 C0.7681825 57.57977059 -3.25145578 55.78554412 -7.32803345 53.95411682 C-10.21295967 52.92395548 -12.6359314 52.61969589 -15.68896484 52.42163086 C-16.80717621 52.34492661 -17.92538757 52.26822235 -19.07748413 52.18919373 C-20.27652374 52.11515823 -21.47556335 52.04112274 -22.7109375 51.96484375 C-23.95243561 51.88126114 -25.19393372 51.79767853 -26.47305298 51.71156311 C-29.76780314 51.49080836 -33.06289788 51.27688002 -36.3583374 51.06671143 C-40.99124686 50.76987207 -45.62341108 50.46172541 -50.25552368 50.15272522 C-52.71833525 49.98906904 -55.18136416 49.82864314 -57.6446228 49.67185974 C-63.14773384 49.31191337 -68.5511365 48.84083258 -74 48 C-75.52040048 47.8904202 -77.0429218 47.80509698 -78.56640625 47.75390625 C-79.37561523 47.72224365 -80.18482422 47.69058105 -81.01855469 47.65795898 C-82.27780762 47.61070679 -82.27780762 47.61070679 -83.5625 47.5625 C-91.8219794 47.20906756 -99.84298208 46.39101465 -108 45 C-105.80577223 39.22123635 -105.80577223 39.22123635 -103 37 C-102.34 37 -101.68 37 -101 37 C-101 36.34 -101 35.68 -101 35 C-100.34 35 -99.68 35 -99 35 C-99 34.34 -99 33.68 -99 33 C-97.09825554 31.34617771 -95.20053023 29.82065899 -93.1875 28.3125 C-92.29454224 27.63985107 -92.29454224 27.63985107 -91.38354492 26.95361328 C-68.26439378 9.71378172 -29.72739121 -7.36682858 0 0 Z " fill="#5AB3DE" transform="translate(263,129)"/>
<path d="M0 0 C2 1 2 1 2.74609375 2.609375 C14.6974538 39.6113259 8.95824746 74.90271633 -8.265625 108.83203125 C-10 112 -10 112 -12 114 C-14.58436305 114.30565652 -17.07723207 114.48995552 -19.67163086 114.59423828 C-20.46380005 114.63354462 -21.25596924 114.67285095 -22.07214355 114.71334839 C-24.70269597 114.84150298 -27.33365503 114.95602914 -29.96484375 115.0703125 C-31.79654944 115.15638146 -33.62821936 115.2432148 -35.45985413 115.33078003 C-39.3090147 115.51288379 -43.15838928 115.68881201 -47.00805664 115.85986328 C-51.91731283 116.07803897 -56.82601555 116.30648423 -61.73461056 116.53901863 C-66.43619169 116.76132997 -71.13800375 116.97855672 -75.83984375 117.1953125 C-77.16990605 117.25720449 -77.16990605 117.25720449 -78.5268383 117.32034683 C-87.68772601 117.74316964 -96.82623678 118.1497843 -106 118 C-104.22753906 114.09130859 -104.22753906 114.09130859 -102.1796875 113.26953125 C-101.41914063 113.11871094 -100.65859375 112.96789062 -99.875 112.8125 C-94.63503421 111.43921468 -90.24411192 109.15263155 -85.5625 106.5 C-84.51521729 105.91182495 -84.51521729 105.91182495 -83.44677734 105.31176758 C-79.68015997 103.17092562 -79.68015997 103.17092562 -76.40991211 100.36523438 C-75 99 -75 99 -73 99 C-73 98.34 -73 97.68 -73 97 C-71.56640625 95.5546875 -71.56640625 95.5546875 -69.5625 93.875 C-65.58378677 90.50621429 -61.7229439 87.0296018 -57.8828125 83.50390625 C-56 82 -56 82 -54 82 C-53.75862305 81.47390137 -53.51724609 80.94780273 -53.26855469 80.40576172 C-51.62686919 77.29237279 -49.6734131 74.41834857 -47.703125 71.5078125 C-46.79565823 70.15695539 -45.88878817 68.80569729 -44.98242188 67.45410156 C-44.49862061 66.73307251 -44.01481934 66.01204346 -43.51635742 65.26916504 C-40.86028312 61.29446168 -38.23547384 57.29923326 -35.609375 53.3046875 C-35.05579315 52.46311096 -34.5022113 51.62153442 -33.93185425 50.75445557 C-32.788651 49.01640004 -31.64557603 47.27826014 -30.50262451 45.54003906 C-14.20116966 20.75206329 -14.20116966 20.75206329 -6.375 9 C-5.82038086 8.16581543 -5.26576172 7.33163086 -4.69433594 6.47216797 C-1.12457142 1.12457142 -1.12457142 1.12457142 0 0 Z " fill="#A3CC8D" transform="translate(375,216)"/>
<path d="M0 0 C3.57756806 0.62218575 5.78968103 2.10346743 8.6875 4.25 C18.20708997 11.00050519 27.1191588 14.56148293 38.42089844 17.34863281 C41.03640907 18.00919532 43.62896227 18.73345567 46.2265625 19.4609375 C60.86571667 23.34200335 74.50359251 23.22356066 89.53369141 22.2734375 C97.26435727 21.7885465 105.0028234 21.44076784 112.73965454 21.07052612 C115.47656833 20.93862922 118.21325619 20.80261227 120.94995117 20.66625977 C133.31108465 20.06135609 145.62243254 19.7391145 158 20 C156.87548273 22.9719385 155.77706209 25.33440687 154 28 C153.34 28 152.68 28 152 28 C151.62875 28.8353125 151.62875 28.8353125 151.25 29.6875 C149.77075182 32.42410913 148.06532561 34.67650869 146 37 C145.34 37 144.68 37 144 37 C144 37.66 144 38.32 144 39 C139.52941176 43 139.52941176 43 137 43 C137 43.66 137 44.32 137 45 C118.72416824 60.56238949 96.58482202 70.34331581 73.07617188 74.59521484 C71.15345431 74.97008146 69.25392831 75.45899953 67.359375 75.95703125 C63.79240096 76.67972386 61.52502736 76.93626225 58 76 C54.07190744 72.51815639 51.35241838 68.55435112 48.48583984 64.18652344 C45.79392646 60.22517341 42.77119111 56.51362914 39.8125 52.75 C38.68795793 51.31200438 37.56897527 49.86963423 36.45703125 48.421875 C35.7451062 47.50293457 35.7451062 47.50293457 35.01879883 46.56542969 C34 45 34 45 34 43 C33.34 43 32.68 43 32 43 C30.4921875 41.3203125 30.4921875 41.3203125 28.875 39.125 C28.33617187 38.40570313 27.79734375 37.68640625 27.2421875 36.9453125 C26 35 26 35 26 33 C25.34 33 24.68 33 24 33 C22.7109375 31.5390625 22.7109375 31.5390625 21.375 29.625 C20.92898437 28.99851562 20.48296875 28.37203125 20.0234375 27.7265625 C19 26 19 26 19 24 C18.34 24 17.68 24 17 24 C15.62101957 22.30189246 14.32040522 20.53964541 13.0625 18.75 C12.37285156 17.77546875 11.68320313 16.8009375 10.97265625 15.796875 C9.99619141 14.41242188 9.99619141 14.41242188 9 13 C8.42121094 12.26265625 7.84242188 11.5253125 7.24609375 10.765625 C6 9 6 9 6 7 C5.34 7 4.68 7 4 7 C0 2.52941176 0 2.52941176 0 0 Z " fill="#58B3DF" transform="translate(201,314)"/>
<path d="M0 0 C5.15924125 0.60580849 10.3339932 0.91617784 15.51757812 1.23535156 C16.49743683 1.29620941 17.47729553 1.35706726 18.48684692 1.41976929 C20.48414994 1.54348087 22.48147471 1.66684176 24.4788208 1.78985596 C29.29271916 2.09183555 34.10454143 2.42058913 38.91601562 2.75878906 C39.76307068 2.81616241 40.61012573 2.87353577 41.48284912 2.93264771 C46.14362681 3.262813 50.72097193 3.79115202 55.34570312 4.47753906 C56.88426766 4.60663542 58.42483727 4.71515906 59.96679688 4.79394531 C60.75634766 4.83583984 61.54589844 4.87773437 62.359375 4.92089844 C63.15923828 4.96021484 63.95910156 4.99953125 64.78320312 5.04003906 C66.02360352 5.10481445 66.02360352 5.10481445 67.2890625 5.17089844 C69.30779862 5.27591939 71.32673263 5.37712466 73.34570312 5.47753906 C73.84070313 6.96253906 73.84070313 6.96253906 74.34570312 8.47753906 C73.20875 8.75726563 72.07179688 9.03699219 70.90039062 9.32519531 C55.83654871 13.17515339 43.76318901 18.97117238 31.34570312 28.47753906 C30.02158062 29.4421942 28.69456277 30.40288306 27.36523438 31.36035156 C26.67937256 31.85567383 25.99351074 32.35099609 25.28686523 32.86132812 C23.92839495 33.84177672 22.56856825 34.82034916 21.20727539 35.796875 C17.75381835 38.15962836 17.75381835 38.15962836 15.34570312 41.47753906 C14.68570313 41.47753906 14.02570313 41.47753906 13.34570312 41.47753906 C13.34570312 42.13753906 13.34570312 42.79753906 13.34570312 43.47753906 C12.68570313 43.47753906 12.02570313 43.47753906 11.34570312 43.47753906 C11.0853125 44.05503906 10.82492188 44.63253906 10.55664062 45.22753906 C7.69764064 50.53974548 2.83618216 55.48600214 -1.65429688 59.47753906 C-2.31429687 59.47753906 -2.97429687 59.47753906 -3.65429688 59.47753906 C-3.90050781 60.05246094 -4.14671875 60.62738281 -4.40039062 61.21972656 C-5.8522274 63.83393733 -7.55717237 65.54090115 -9.71679688 67.60253906 C-12.5700162 70.25658906 -12.5700162 70.25658906 -14.65429688 73.47753906 C-15.31429687 73.47753906 -15.97429687 73.47753906 -16.65429688 73.47753906 C-17.05636353 74.36965088 -17.05636353 74.36965088 -17.46655273 75.27978516 C-18.66409387 77.49566703 -19.8574867 78.89833434 -21.65820312 80.64160156 C-22.52155273 81.48851562 -22.52155273 81.48851562 -23.40234375 82.35253906 C-24.00111328 82.93003906 -24.59988281 83.50753906 -25.21679688 84.10253906 C-26.40779072 85.25914057 -27.59669692 86.41789684 -28.78320312 87.57910156 C-29.30986572 88.08779785 -29.83652832 88.59649414 -30.37915039 89.12060547 C-31.77071858 90.47154011 -31.77071858 90.47154011 -32.65429688 92.47753906 C-33.31429687 92.47753906 -33.97429687 92.47753906 -34.65429688 92.47753906 C-34.91339844 93.06019531 -35.1725 93.64285156 -35.43945312 94.24316406 C-36.74315935 96.64097745 -38.1717522 98.29510701 -40.09179688 100.22753906 C-40.68863281 100.84113281 -41.28546875 101.45472656 -41.90039062 102.08691406 C-43.65429688 103.47753906 -43.65429688 103.47753906 -46.65429688 103.47753906 C-53.60867184 74.04563072 -45.92426769 42.36751216 -31.62451172 16.35693359 C-30.58889989 14.35085915 -29.73349703 12.30544774 -28.86132812 10.22363281 C-22.52417874 -3.40053302 -13.46921073 -1.67404046 0 0 Z " fill="#55B1DE" transform="translate(169.654296875,178.5224609375)"/>
<path d="M0 0 C2.4375 2.125 2.4375 2.125 4 4 C4 4.66 4 5.32 4 6 C4.66 6 5.32 6 6 6 C6 6.66 6 7.32 6 8 C6.66 8 7.32 8 8 8 C9.13277268 10.18376766 10.25622789 12.37157128 11.375 14.5625 C11.69210937 15.17158203 12.00921875 15.78066406 12.3359375 16.40820312 C15.72105368 23.0726506 17 28.36807004 17 36 C-12.7 36 -42.4 36 -73 36 C-73 24.34447004 -70.09337275 14.62120141 -62 6 C-55.83225806 0 -55.83225806 0 -53 0 C-53 -0.66 -53 -1.32 -53 -2 C-51.10667466 -2.81832722 -49.21022267 -3.62942268 -47.3125 -4.4375 C-45.72888672 -5.11619141 -45.72888672 -5.11619141 -44.11328125 -5.80859375 C-29.88401693 -11.25392075 -12.44738027 -8.4748121 0 0 Z " fill="#195E99" transform="translate(282,270)"/>
<path d="M0 0 C5.91619707 2.69642059 10.18737347 6.95895518 13.28125 12.61328125 C15.69578642 20.11105223 16.11896327 26.7894816 13.46875 34.30078125 C11.27893056 38.16946227 8.83427386 41.3839939 5.46875 44.30078125 C4.80875 44.30078125 4.14875 44.30078125 3.46875 44.30078125 C3.46875 44.96078125 3.46875 45.62078125 3.46875 46.30078125 C-4.34277261 49.96243247 -11.42763507 49.67017731 -19.53125 47.30078125 C-25.77608333 44.38652569 -30.77577027 38.99652804 -33.71875 32.80078125 C-35.50307983 25.11443739 -35.62763676 17.85566955 -31.6015625 10.921875 C-30.5825957 9.37854936 -29.5570926 7.83954515 -28.53125 6.30078125 C-27.87125 6.30078125 -27.21125 6.30078125 -26.53125 6.30078125 C-26.53125 5.64078125 -26.53125 4.98078125 -26.53125 4.30078125 C-18.68011685 -1.65671816 -9.47752117 -2.61801896 0 0 Z " fill="#1D619A" transform="translate(263.53125,207.69921875)"/>
<path d="M0 0 C0.515625 0.495 1.03125 0.99 1.5625 1.5 C1.5625 2.49 1.5625 3.48 1.5625 4.5 C0.1015625 5.88671875 0.1015625 5.88671875 -1.8125 7.1875 C-2.43898437 7.62449219 -3.06546875 8.06148438 -3.7109375 8.51171875 C-5.4375 9.5 -5.4375 9.5 -7.4375 9.5 C-7.4375 10.16 -7.4375 10.82 -7.4375 11.5 C-8.0975 11.5 -8.7575 11.5 -9.4375 11.5 C-9.4375 12.16 -9.4375 12.82 -9.4375 13.5 C-10.0975 13.5 -10.7575 13.5 -11.4375 13.5 C-12.4275 15.975 -12.4275 15.975 -13.4375 18.5 C-21.6875 18.5 -29.9375 18.5 -38.4375 18.5 C-37.10940496 9.20333474 -35.67328138 4.76636503 -28.46875 -1.0546875 C-19.60935898 -7.35848495 -8.68459721 -5.34436751 0 0 Z " fill="#A6CE8F" transform="translate(226.4375,255.5)"/>
<path d="M0 0 C2.9375 2.0625 2.9375 2.0625 5 4 C5 4.66 5 5.32 5 6 C5.66 6 6.32 6 7 6 C9.08401775 11.03637624 10.18957424 14.48654908 10 20 C-11.31669398 21.64188305 -11.31669398 21.64188305 -17.3515625 17.94921875 C-19.48469355 15.40529037 -21.22261173 12.79853202 -23 10 C-25.23613624 8.07302654 -27.5067849 6.59141389 -30 5 C-23.48075222 -5.05050699 -9.76077685 -5.46603504 0 0 Z " fill="#A4CB8E" transform="translate(309,254)"/>
<path d="M0 0 C3.74943041 3.24950636 6.57364553 6.37317197 6.97265625 11.4921875 C6.60985552 16.18205055 5.29405135 19.14414062 1.8125 22.4375 C-2.27085331 25.01178795 -5.38159584 26.30256275 -10.1875 25.4375 C-14.09391134 23.24288689 -17.32507491 20.83894078 -19.6875 17 C-20.55043737 12.57744596 -20.61565013 8.7219504 -19.1875 4.4375 C-18.5275 4.4375 -17.8675 4.4375 -17.1875 4.4375 C-16.960625 3.81875 -16.73375 3.2 -16.5 2.5625 C-12.98197609 -3.13334823 -5.38709978 -2.64073518 0 0 Z " fill="#ABCF96" transform="translate(218.1875,224.5625)"/>
<path d="M0 0 C4.75734783 2.42531458 7.71438001 5.15448563 10 10 C10.4272709 14.83670662 9.75528589 18.03491247 6.75 21.875 C5.8425 22.57625 4.935 23.2775 4 24 C3.21625 24.61875 2.4325 25.2375 1.625 25.875 C-2.03634714 27.44414878 -4.17499297 27.0065808 -8 26 C-12.31021031 23.67911752 -15.09083014 21.56079466 -17 17 C-17.64475627 12.02616592 -16.91814102 8.6594658 -14.26171875 4.51171875 C-10.48720415 -0.01068729 -5.57265444 -0.6965818 0 0 Z " fill="#A5CC8F" transform="translate(300,223)"/>
<path d="M0 0 C3 1 3 1 5 4 C5.66807132 8.6531944 5.95453084 12.69547452 3.125 16.5625 C-0.47621638 18.99861697 -2.63606813 19.26183591 -7 19 C-9.82581721 18.11188602 -10.8584683 17.17185992 -12.75 14.875 C-14.51611093 10.81294487 -14.56227021 8.42787792 -14 4 C-9.25824195 -0.86654116 -6.52479565 -1.14470099 0 0 Z " fill="#F8B628" transform="translate(400,159)"/>
<path d="M0 0 C0 3 0 3 -2.5 5.6875 C-3.325 6.450625 -4.15 7.21375 -5 8 C-4.0298999 7.93417725 -3.0597998 7.86835449 -2.06030273 7.80053711 C16.71249283 6.54703119 35.19919546 5.55678471 54 7 C54 7.33 54 7.66 54 8 C45.97594896 8.39430071 37.95176271 8.78567935 29.92739391 9.17345428 C26.20030508 9.35365392 22.47326835 9.53481337 18.74633789 9.71826172 C15.14137494 9.89566955 11.5362921 10.0704316 7.9311161 10.24345398 C6.56415653 10.30950595 5.19724063 10.37646882 3.83037376 10.44441223 C-4.12025596 10.83893841 -12.039188 11.09748802 -20 11 C-18.26269531 7.11328125 -18.26269531 7.11328125 -15.8984375 6.09375 C-14.64933594 5.79984375 -14.64933594 5.79984375 -13.375 5.5 C-8.49644276 4.21654236 -4.43879803 2.38379894 0 0 Z " fill="#C1DAB6" transform="translate(289,323)"/>
<path d="M0 0 C0.33 0 0.66 0 1 0 C1.66 4.95 2.32 9.9 3 15 C4.32 15.33 5.64 15.66 7 16 C8.75 18.0625 8.75 18.0625 10 20 C8.56439157 22.25122664 7.12659138 24.50100138 5.6875 26.75 C5.28337891 27.38421875 4.87925781 28.0184375 4.46289062 28.671875 C-0.09777928 35.79096949 -0.09777928 35.79096949 -2 38 C-2.66 38 -3.32 38 -4 38 C-3.88265487 36.66597118 -3.75557824 35.3327986 -3.625 34 C-3.55539062 33.2575 -3.48578125 32.515 -3.4140625 31.75 C-3 29 -3 29 -2 25.375 C-0.68743402 20.29194194 -0.54801934 15.22662583 -0.375 10 C-0.33632813 9.03449219 -0.29765625 8.06898438 -0.2578125 7.07421875 C-0.16443059 4.7163256 -0.07865671 2.35842244 0 0 Z " fill="#A3CC8E" transform="translate(326,249)"/>
<path d="M0 0 C5.40724582 1.27907383 10.80413879 1.8065669 16.33203125 2.28515625 C17.80736328 2.42727539 17.80736328 2.42727539 19.3125 2.57226562 C20.25480469 2.65669922 21.19710937 2.74113281 22.16796875 2.828125 C23.44099854 2.94256958 23.44099854 2.94256958 24.73974609 3.05932617 C27.13336285 3.22364456 27.13336285 3.22364456 29.95703125 2.09765625 C32.52968943 2.02736504 35.07344556 2.00394793 37.64453125 2.03515625 C38.34642578 2.03966797 39.04832031 2.04417969 39.77148438 2.04882812 C41.50003663 2.06058698 43.2285449 2.07852171 44.95703125 2.09765625 C44.95703125 1.43765625 44.95703125 0.77765625 44.95703125 0.09765625 C49.24703125 0.09765625 53.53703125 0.09765625 57.95703125 0.09765625 C38.35952348 9.89641014 9.66039933 5.44725453 -11.04296875 2.09765625 C-11.04296875 1.43765625 -11.04296875 0.77765625 -11.04296875 0.09765625 C-6.98856946 -0.7649819 -4.02382555 -1.05218144 0 0 Z " fill="#60A6CE" transform="translate(231.04296875,408.90234375)"/>
<path d="M0 0 C2 2 2 2 2.24723816 4.6096344 C2.24510063 6.26768349 2.24510063 6.26768349 2.24291992 7.95922852 C2.24599655 9.21135635 2.24907318 10.46348419 2.25224304 11.7535553 C2.24533983 13.12867411 2.23807245 14.50379113 2.23046875 15.87890625 C2.22927609 17.28938251 2.22882397 18.69985957 2.2290802 20.1103363 C2.22751373 23.0736892 2.21921825 26.03692159 2.20581055 29.00024414 C2.18892922 32.77711309 2.18499315 36.55384822 2.18575573 40.33075047 C2.18548195 43.24862418 2.17996581 46.1664693 2.17275429 49.08433342 C2.16959532 50.47522706 2.16760677 51.86612392 2.16686058 53.25702095 C2.14376695 73.82889328 2.14376695 73.82889328 -0.875 79.375 C-1.20242188 80.00148438 -1.52984375 80.62796875 -1.8671875 81.2734375 C-3.06701938 83.10214678 -4.40299089 84.51250009 -6 86 C-6 84.68 -6 83.36 -6 82 C-5.34 82 -4.68 82 -4 82 C-4 80.35 -4 78.7 -4 77 C-3.34 77 -2.68 77 -2 77 C-1.02664276 72.90124137 -0.84625721 69.03040952 -0.79467773 64.82299805 C-0.78477814 64.12001083 -0.77487854 63.41702362 -0.76467896 62.69273376 C-0.7332367 60.38242901 -0.70837532 58.07210374 -0.68359375 55.76171875 C-0.66300928 54.15460188 -0.64201242 52.54749024 -0.62062073 50.94038391 C-0.56555421 46.72036998 -0.51607724 42.50030844 -0.46777344 38.2802124 C-0.41744549 33.96996854 -0.3618185 29.6597934 -0.30664062 25.34960938 C-0.19924779 16.89979777 -0.09776129 8.4499285 0 0 Z " fill="#90C2D9" transform="translate(427,279)"/>
<path d="M0 0 C0.99 0.495 0.99 0.495 2 1 C3.63680231 1.10370523 5.27768263 1.14592932 6.91772461 1.15771484 C7.94316879 1.16797699 8.96861298 1.17823914 10.02513123 1.18881226 C11.13961136 1.19611359 12.25409149 1.20341492 13.40234375 1.2109375 C15.76107437 1.23902933 18.11979823 1.26769392 20.47851562 1.296875 C24.1976689 1.33796791 27.91669904 1.37485171 31.63598633 1.40136719 C35.22503908 1.42917629 38.81351662 1.47507397 42.40234375 1.5234375 C43.4986058 1.52669037 44.59486786 1.52994324 45.72434998 1.53329468 C62.39030439 1.79529166 62.39030439 1.79529166 67.80625916 6.60360718 C68.20019363 7.06441681 68.59412811 7.52522644 69 8 C67.35 8.33 65.7 8.66 64 9 C64 8.01 64 7.02 64 6 C59.95924752 5.24999067 56.10206665 4.85745517 51.99462891 4.79467773 C50.25350327 4.7647599 50.25350327 4.7647599 48.47720337 4.73423767 C47.23949188 4.71752518 46.0017804 4.70081268 44.7265625 4.68359375 C43.44768158 4.66281265 42.16880066 4.64203156 40.85116577 4.62062073 C37.46794796 4.5664478 34.08471835 4.51615774 30.70141602 4.46777344 C27.24229856 4.41734068 23.78326399 4.36176883 20.32421875 4.30664062 C13.54954539 4.19970865 6.77480961 4.097898 0 4 C0 2.68 0 1.36 0 0 Z " fill="#8DCAE1" transform="translate(347,134)"/>
<path d="M0 0 C0.515625 0.495 1.03125 0.99 1.5625 1.5 C1.5625 2.49 1.5625 3.48 1.5625 4.5 C0.1015625 5.88671875 0.1015625 5.88671875 -1.8125 7.1875 C-2.75222656 7.84298828 -2.75222656 7.84298828 -3.7109375 8.51171875 C-5.4375 9.5 -5.4375 9.5 -7.4375 9.5 C-7.4375 10.16 -7.4375 10.82 -7.4375 11.5 C-8.0975 11.5 -8.7575 11.5 -9.4375 11.5 C-9.4375 12.16 -9.4375 12.82 -9.4375 13.5 C-10.0975 13.5 -10.7575 13.5 -11.4375 13.5 C-11.7675 14.16 -12.0975 14.82 -12.4375 15.5 C-12.7675 14.51 -13.0975 13.52 -13.4375 12.5 C-12.798125 12.066875 -12.15875 11.63375 -11.5 11.1875 C-9.17003997 9.58760823 -9.17003997 9.58760823 -8.4375 6.5 C-9.0975 5.84 -9.7575 5.18 -10.4375 4.5 C-9.7775 3.84 -9.1175 3.18 -8.4375 2.5 C-9.0975 0.85 -9.7575 -0.8 -10.4375 -2.5 C-14.59191703 -2.75843867 -14.59191703 -2.75843867 -18.4375 -1.4375 C-21.31071524 -0.09068036 -23.41918698 -0.81401977 -26.4375 -1.5 C-19.55323236 -8.38426764 -7.14362281 -4.39607557 0 0 Z " fill="#ABD096" transform="translate(226.4375,255.5)"/>
<path d="M0 0 C0.33 0.66 0.66 1.32 1 2 C1.99 2.33 2.98 2.66 4 3 C4 3.66 4 4.32 4 5 C5.65 5.33 7.3 5.66 9 6 C8.34 7.65 7.68 9.3 7 11 C6.34 11 5.68 11 5 11 C5.16298584 12.12341797 5.32597168 13.24683594 5.49389648 14.40429688 C6.08153612 19.12614427 6.12708078 23.77854254 6.09765625 28.53125 C6.0962413 29.40777222 6.09482635 30.28429443 6.09336853 31.18737793 C6.08781768 33.95828821 6.07527461 36.72911457 6.0625 39.5 C6.05747864 41.39062382 6.05291685 43.28124893 6.04882812 45.171875 C6.0378644 49.78128183 6.02063425 54.39062673 6 59 C5.34 59 4.68 59 4 59 C4.01571045 58.17089111 4.0314209 57.34178223 4.04760742 56.48754883 C4.31084038 40.42589537 4.2551331 24.91137797 1.36376953 9.046875 C0.82961581 6.04127447 0.41422384 3.0242362 0 0 Z " fill="#59A1C1" transform="translate(383,222)"/>
<path d="M0 0 C8.78629233 13.1794385 6.16588591 39.20659055 4 54 C3.34 54.99 2.68 55.98 2 57 C1.97494385 55.77071777 1.9498877 54.54143555 1.92407227 53.27490234 C1.82883816 48.64900918 1.7289165 44.02322643 1.62768555 39.39746094 C1.58476967 37.40757863 1.54307108 35.41766964 1.50268555 33.42773438 C1.27508526 22.25565125 0.97365079 11.13665353 0 0 Z " fill="#B9D6AE" transform="translate(379,226)"/>
<path d="M0 0 C3 1 3 1 5 4 C5.66807132 8.6531944 5.95453084 12.69547452 3.125 16.5625 C-0.47621638 18.99861697 -2.63606813 19.26183591 -7 19 C-9.82581721 18.11188602 -10.8584683 17.17185992 -12.75 14.875 C-14.49407149 10.86363557 -14.4929242 8.36590002 -14 4 C-12 2 -12 2 -10 1 C-10.165 1.495 -10.33 1.99 -10.5 2.5 C-11.20688818 6.03444089 -11.06005155 9.39690701 -11 13 C-10.34 13.33 -9.68 13.66 -9 14 C-9 14.66 -9 15.32 -9 16 C-5.37 16 -1.74 16 2 16 C2 11.38 2 6.76 2 2 C-0.31 2 -2.62 2 -5 2 C-7.4375 1 -7.4375 1 -9 0 C-5.90998791 -1.54500605 -3.32822635 -0.58389936 0 0 Z " fill="#ECCC7D" transform="translate(400,159)"/>
<path d="M0 0 C3.60948102 0.62089696 5.83290006 2.1432553 8.75 4.3125 C13.01941548 7.39103995 17.22898866 9.79119846 22 12 C22 12.33 22 12.66 22 13 C19.69 13 17.38 13 15 13 C14.67 14.65 14.34 16.3 14 18 C8.19794344 12.35475578 8.19794344 12.35475578 6 9 C6 8.34 6 7.68 6 7 C5.34 7 4.68 7 4 7 C0 2.52941176 0 2.52941176 0 0 Z " fill="#81BAD3" transform="translate(201,314)"/>
<path d="M0 0 C1.15190466 3.45571397 1.12007093 6.12049026 1.11352539 9.76635742 C1.11367142 10.44954544 1.11381744 11.13273346 1.1139679 11.83662415 C1.11327169 14.09293807 1.10549296 16.34916926 1.09765625 18.60546875 C1.09579103 20.17059789 1.09436762 21.73572761 1.09336853 23.30085754 C1.08955152 27.41903293 1.07972818 31.53717302 1.06866455 35.65533447 C1.05843291 39.85810875 1.05386715 44.06088873 1.04882812 48.26367188 C1.03810519 56.50913078 1.02103854 64.754561 1 73 C0.01 73.495 0.01 73.495 -1 74 C-1.82869577 70.40463489 -2.10763216 67.12329282 -2.0625 63.4375 C-2.05476563 62.39335937 -2.04703125 61.34921875 -2.0390625 60.2734375 C-2.01302083 58.09114583 -1.98697917 55.90885417 -1.9609375 53.7265625 C-1.94933594 52.16035156 -1.94933594 52.16035156 -1.9375 50.5625 C-1.92009766 49.14130859 -1.92009766 49.14130859 -1.90234375 47.69140625 C-1.92772401 44.96647632 -1.92772401 44.96647632 -2.56640625 42.21484375 C-2.78103516 41.11849609 -2.78103516 41.11849609 -3 40 C-2.505 39.505 -2.505 39.505 -2 39 C-1.94974297 37.31324854 -1.96443478 35.62462518 -2 33.9375 C-2.05390737 27.05275872 -1.83617504 20.1916488 -1.5625 13.3125 C-1.52318359 12.23669678 -1.48386719 11.16089355 -1.44335938 10.05249023 C-1.40146484 9.04130127 -1.35957031 8.0301123 -1.31640625 6.98828125 C-1.27974854 6.07602783 -1.24309082 5.16377441 -1.20532227 4.22387695 C-1 2 -1 2 0 0 Z " fill="#6BA8CC" transform="translate(428,205)"/>
<path d="M0 0 C7.90199041 -0.05066409 15.80393902 -0.08571846 23.70605469 -0.10986328 C26.39490375 -0.11879903 29.0836587 -0.13272238 31.77246094 -0.15087891 C35.63479313 -0.17510756 39.49698075 -0.18647875 43.359375 -0.1953125 C44.5636615 -0.20563507 45.767948 -0.21595764 47.00872803 -0.22659302 C48.12958801 -0.22674408 49.250448 -0.22689514 50.40527344 -0.22705078 C51.88420074 -0.23371262 51.88420074 -0.23371262 53.39300537 -0.24050903 C56.07330512 0.00676279 57.70726082 0.63045317 60 2 C59.01418945 1.99476318 58.02837891 1.98952637 57.01269531 1.98413086 C30.49024521 1.82788344 30.49024521 1.82788344 4 3 C4 2.34 4 1.68 4 1 C3.34 1 2.68 1 2 1 C1.67 1.66 1.34 2.32 1 3 C0.67 2.01 0.34 1.02 0 0 Z " fill="#52ACD7" transform="translate(259,338)"/>
<path d="M0 0 C0 3 0 3 -2.5 5.6875 C-3.325 6.450625 -4.15 7.21375 -5 8 C-3.02 8 -1.04 8 1 8 C1 8.33 1 8.66 1 9 C-6.09326321 10.72330907 -12.70968976 11.2494783 -20 11 C-19.2890625 9.09375 -19.2890625 9.09375 -18 7 C-15.8984375 6.09375 -15.8984375 6.09375 -13.375 5.5 C-8.49644276 4.21654236 -4.43879803 2.38379894 0 0 Z " fill="#ABCE9B" transform="translate(289,323)"/>
<path d="M0 0 C1.32 0.66 2.64 1.32 4 2 C2.35 2.33 0.7 2.66 -1 3 C-0.87625 3.721875 -0.7525 4.44375 -0.625 5.1875 C-1 8 -1 8 -3.6875 10.625 C-6.34225984 12.62541763 -9.13740083 14.31180049 -12 16 C-13.68477344 17.31037934 -15.35648543 18.63823078 -17 20 C-17.99 19.34 -18.98 18.68 -20 18 C-19.01 17.67 -18.02 17.34 -17 17 C-17 16.34 -17 15.68 -17 15 C-15.56640625 13.5546875 -15.56640625 13.5546875 -13.5625 11.875 C-12.48162109 10.95654297 -12.48162109 10.95654297 -11.37890625 10.01953125 C-10.59386719 9.35308594 -9.80882812 8.68664062 -9 8 C-7.3295213 6.52513976 -5.66275253 5.04606525 -4 3.5625 C-3.236875 2.88316406 -2.47375 2.20382812 -1.6875 1.50390625 C-1.130625 1.00761719 -0.57375 0.51132812 0 0 Z " fill="#AED09A" transform="translate(319,298)"/>
<path d="M0 0 C1.21147705 -0.00386719 2.4229541 -0.00773437 3.67114258 -0.01171875 C5.61283325 0.00181641 5.61283325 0.00181641 7.59375 0.015625 C8.90045654 0.01949219 10.20716309 0.02335937 11.5534668 0.02734375 C21.51290017 0.11580106 31.24879975 0.78954143 41.09375 2.265625 C41.58875 3.750625 41.58875 3.750625 42.09375 5.265625 C40.67449219 5.05993896 40.67449219 5.05993896 39.2265625 4.85009766 C28.83829936 3.4110345 18.57145472 2.8573117 8.09375 2.640625 C6.52862778 2.60229282 4.96352319 2.56323334 3.3984375 2.5234375 C-0.36964234 2.4291642 -4.13781899 2.34456182 -7.90625 2.265625 C-5.20239143 -0.43823357 -3.77931125 0.00782235 0 0 Z " fill="#67A7CB" transform="translate(239.90625,122.734375)"/>
<path d="M0 0 C2.62002725 2.37050084 4.35819909 4.87276017 6 8 C6 8.99 6 9.98 6 11 C6.66 11 7.32 11 8 11 C9.17176518 13.12232979 10.33754785 15.24757791 11.5 17.375 C11.83386719 17.97828125 12.16773438 18.5815625 12.51171875 19.203125 C15 23.7734375 15 23.7734375 15 26 C10.01987239 24.49087042 6.75740058 21.44338151 3 18 C3.639375 17.896875 4.27875 17.79375 4.9375 17.6875 C5.9584375 17.3471875 5.9584375 17.3471875 7 17 C7.33 16.01 7.66 15.02 8 14 C7.01 14 6.02 14 5 14 C4.67 12.35 4.34 10.7 4 9 C3.01 8.67 2.02 8.34 1 8 C0.67 5.36 0.34 2.72 0 0 Z " fill="#82C2DC" transform="translate(293,183)"/>
<path d="M0 0 C1.0851388 3.25541639 0.94320665 4.00276495 0.0390625 7.16796875 C-0.29738281 8.38516602 -0.29738281 8.38516602 -0.640625 9.62695312 C-0.88296875 10.47193359 -1.1253125 11.31691406 -1.375 12.1875 C-4.26809075 22.36895397 -5.17745334 31.94593419 -5.5625 42.5 C-5.60568359 43.60859375 -5.64886719 44.7171875 -5.69335938 45.859375 C-5.79862214 48.57281506 -5.90075846 51.28633417 -6 54 C-6.33 54 -6.66 54 -7 54 C-7.33 42.78 -7.66 31.56 -8 20 C-7.34 19.67 -6.68 19.34 -6 19 C-5.13224374 15.52897495 -4.52304834 12.03448121 -3.87890625 8.515625 C-3.03488034 5.13952136 -1.9531278 2.85080492 0 0 Z " fill="#8BC8E2" transform="translate(124,214)"/>
<path d="M0 0 C0.33 0.66 0.66 1.32 1 2 C2.65 2 4.3 2 6 2 C6 2.99 6 3.98 6 5 C4.50390625 6.31640625 4.50390625 6.31640625 2.5625 7.5625 C-0.23259721 9.30536929 -0.23259721 9.30536929 -2 12 C-2.66 12 -3.32 12 -4 12 C-4.33 12.66 -4.66 13.32 -5 14 C-5.12375 13.195625 -5.2475 12.39125 -5.375 11.5625 C-5.684375 10.2940625 -5.684375 10.2940625 -6 9 C-6.66 8.67 -7.32 8.34 -8 8 C-5.36 5.36 -2.72 2.72 0 0 Z " fill="#68B8DE" transform="translate(187,208)"/>
<path d="M0 0 C0.66 0.33 1.32 0.66 2 1 C2.625 3.0625 2.625 3.0625 3 5 C2.34 5 1.68 5 1 5 C0.9175 5.5775 0.835 6.155 0.75 6.75 C-0.21797787 9.6539336 -1.68694284 11.03740604 -4 13 C-4.66 13 -5.32 13 -6 13 C-6.33 14.65 -6.66 16.3 -7 18 C-7.66 18 -8.32 18 -9 18 C-8.59080462 12.06666693 -7.81109992 8.61951506 -4 4 C-3.34 4 -2.68 4 -2 4 C-1.34 2.68 -0.68 1.36 0 0 Z " fill="#4D9ECC" transform="translate(86,147)"/>
<path d="M0 0 C0.33 0 0.66 0 1 0 C1.66 4.95 2.32 9.9 3 15 C4.32 15.33 5.64 15.66 7 16 C8.75 18.0625 8.75 18.0625 10 20 C9.19185349 21.33597652 8.37836819 22.668725 7.5625 24 C7.11003906 24.7425 6.65757812 25.485 6.19140625 26.25 C5.79824219 26.8275 5.40507812 27.405 5 28 C4.67 28 4.34 28 4 28 C4 25.36 4 22.72 4 20 C2.68 20.33 1.36 20.66 0 21 C0 14.07 0 7.14 0 0 Z " fill="#B7D4A8" transform="translate(326,249)"/>
<path d="M0 0 C0.33 0 0.66 0 1 0 C1.46651624 9.01931392 0.97329099 19.82564514 -5 27 C-5.33 27.886875 -5.66 28.77375 -6 29.6875 C-6.33 30.450625 -6.66 31.21375 -7 32 C-8.485 32.495 -8.485 32.495 -10 33 C-9.81969238 32.46342773 -9.63938477 31.92685547 -9.45361328 31.37402344 C-7.54720536 25.68057853 -5.69132351 19.97278814 -3.875 14.25 C-3.47861328 13.01443359 -3.47861328 13.01443359 -3.07421875 11.75390625 C-1.83834802 7.8580904 -0.67355555 4.04133327 0 0 Z " fill="#5FA8CB" transform="translate(385,284)"/>
<path d="M0 0 C0.99 0 1.98 0 3 0 C2 3 2 3 -0.08161926 4.15423584 C-7.23830809 6.79879042 -13.41713479 7.54183439 -21.01171875 7.390625 C-22.10595657 7.38496521 -23.2001944 7.37930542 -24.32759094 7.37347412 C-27.78136192 7.35129843 -31.23404899 7.30113722 -34.6875 7.25 C-37.04620885 7.22991072 -39.40493415 7.21166423 -41.76367188 7.1953125 C-47.50947689 7.15149566 -53.25466098 7.0847751 -59 7 C-59 6.67 -59 6.34 -59 6 C-58.38834488 5.98969254 -57.77668976 5.97938507 -57.14649963 5.96876526 C-50.80417684 5.86093255 -44.46200286 5.74631658 -38.11987305 5.62768555 C-35.75011292 5.5842619 -33.38032 5.54259251 -31.01049805 5.50268555 C-27.61236667 5.44516232 -24.21440157 5.38141697 -20.81640625 5.31640625 C-19.74975235 5.29969376 -18.68309845 5.28298126 -17.5841217 5.26576233 C-16.60318039 5.24581711 -15.62223907 5.22587189 -14.61157227 5.20532227 C-13.74331314 5.18977798 -12.87505402 5.1742337 -11.98048401 5.15821838 C-9.99919221 5.21537575 -9.99919221 5.21537575 -9 4 C-7.00041636 3.95919217 -4.99954746 3.95745644 -3 4 C-3 3.34 -3 2.68 -3 2 C-2.01 2 -1.02 2 0 2 C0 1.34 0 0.68 0 0 Z " fill="#86C1E2" transform="translate(414,367)"/>
<path d="M0 0 C4.29 0 8.58 0 13 0 C-0.73636876 6.86818438 -19.01823328 5.13206259 -34 5 C-34 4.67 -34 4.34 -34 4 C-32.87980469 3.93941406 -31.75960937 3.87882812 -30.60546875 3.81640625 C-29.13280016 3.73198576 -27.66014456 3.64733851 -26.1875 3.5625 C-25.44951172 3.52318359 -24.71152344 3.48386719 -23.95117188 3.44335938 C-20.76928658 3.25618965 -18.03837622 3.01279207 -15 2 C-12.42734182 1.92970879 -9.88358569 1.90629168 -7.3125 1.9375 C-6.61060547 1.94201172 -5.90871094 1.94652344 -5.18554688 1.95117188 C-3.45699462 1.96293073 -1.72848635 1.98086546 0 2 C0 1.34 0 0.68 0 0 Z " fill="#89C1E1" transform="translate(276,409)"/>
<path d="M0 0 C0.66 0.33 1.32 0.66 2 1 C0.46745644 6.87475032 -1.67669016 12.39473306 -4 18 C-5 16 -6 14 -7 12 C-7.99 11.67 -8.98 11.34 -10 11 C-9.67 10.34 -9.34 9.68 -9 9 C-8.34 9 -7.68 9 -7 9 C-7 8.34 -7 7.68 -7 7 C-6.34 7 -5.68 7 -5 7 C-5 6.34 -5 5.68 -5 5 C-4.34 5 -3.68 5 -3 5 C-3 4.34 -3 3.68 -3 3 C-2.34 3 -1.68 3 -1 3 C-0.67 2.01 -0.34 1.02 0 0 Z " fill="#6099C1" transform="translate(185,224)"/>
<path d="M0 0 C2.35424675 -0.02726927 4.70816962 -0.04696719 7.0625 -0.0625 C8.37347656 -0.07410156 9.68445313 -0.08570313 11.03515625 -0.09765625 C14.78901224 -0.00519674 18.29014049 0.45158599 22 1 C25.14298674 1.24763342 28.28873076 1.40772569 31.4375 1.5625 C32.67790039 1.62727539 32.67790039 1.62727539 33.94335938 1.69335938 C35.96209549 1.79838033 37.98102951 1.89958559 40 2 C40.495 3.485 40.495 3.485 41 5 C39.02 5.33 37.04 5.66 35 6 C35.33 5.34 35.66 4.68 36 4 C28.41 3.67 20.82 3.34 13 3 C13 2.34 13 1.68 13 1 C8.71 1 4.42 1 0 1 C0 0.67 0 0.34 0 0 Z " fill="#97CBE1" transform="translate(203,182)"/>
<path d="M0 0 C4.29 0 8.58 0 13 0 C13 0.66 13 1.32 13 2 C18.28 2.33 23.56 2.66 29 3 C29.33 2.34 29.66 1.68 30 1 C30 2.32 30 3.64 30 5 C23.34775307 5.1487291 17.07159399 4.63303212 10.5 3.625 C9.59507812 3.49867188 8.69015625 3.37234375 7.7578125 3.2421875 C6.89929688 3.11328125 6.04078125 2.984375 5.15625 2.8515625 C3.99319336 2.67874756 3.99319336 2.67874756 2.80664062 2.50244141 C1.91235352 2.25373291 1.91235352 2.25373291 1 2 C0.67 1.34 0.34 0.68 0 0 Z " fill="#75ADCE" transform="translate(222,385)"/>
<path d="M0 0 C0.5534764 2.07553648 1 3.84365964 1 6 C1.66 6.33 2.32 6.66 3 7 C2.25 12.75 2.25 12.75 0 15 C-0.33 14.01 -0.66 13.02 -1 12 C-1.33 14.64 -1.66 17.28 -2 20 C-2.66 20 -3.32 20 -4 20 C-4.4946164 12.45709983 -2.90617391 6.941085 0 0 Z " fill="#22689D" transform="translate(213,286)"/>
<path d="M0 0 C0.66 0 1.32 0 2 0 C3.0098473 1.91149668 4.00754495 3.82941569 5 5.75 C5.8353125 7.35101563 5.8353125 7.35101563 6.6875 8.984375 C8 12 8 12 8 16 C7.01 15.67 6.02 15.34 5 15 C4.67 14.01 4.34 13.02 4 12 C2.37667033 10.61423077 0.71275535 9.27358732 -1 8 C-0.67 7.34 -0.34 6.68 0 6 C-0.32550502 4.33178677 -0.65846063 2.66500443 -1 1 C-0.67 0.67 -0.34 0.34 0 0 Z " fill="#336D9C" transform="translate(289,280)"/>
<path d="M0 0 C0.33 0.66 0.66 1.32 1 2 C1.99 2.33 2.98 2.66 4 3 C4 3.66 4 4.32 4 5 C5.65 5.33 7.3 5.66 9 6 C8.34 7.65 7.68 9.3 7 11 C6.34 11 5.68 11 5 11 C4.67 14.3 4.34 17.6 4 21 C3.67 21 3.34 21 3 21 C2 14 1 7 0 0 Z " fill="#63AFD4" transform="translate(383,222)"/>
<path d="M0 0 C4.10403363 -0.08694042 8.20783129 -0.14037149 12.3125 -0.1875 C13.47974609 -0.21263672 14.64699219 -0.23777344 15.84960938 -0.26367188 C16.96787109 -0.27333984 18.08613281 -0.28300781 19.23828125 -0.29296875 C20.26993408 -0.3086792 21.30158691 -0.32438965 22.36450195 -0.34057617 C25 0 25 0 26.86010742 1.51831055 C27.23627197 2.00726807 27.61243652 2.49622559 28 3 C24.45835085 3.0292067 20.91673303 3.04686814 17.375 3.0625 C15.87646484 3.07506836 15.87646484 3.07506836 14.34765625 3.08789062 C9.44979725 3.1041087 4.81343801 3.04318537 0 2 C0 1.34 0 0.68 0 0 Z " fill="#6CB1D5" transform="translate(155,172)"/>
<path d="M0 0 C0.33 0 0.66 0 1 0 C1 1.98 1 3.96 1 6 C0.34 6 -0.32 6 -1 6 C-3.04169485 8.90548882 -4 10.40142046 -4 14 C-6.375 16.6875 -6.375 16.6875 -9 19 C-9.66 19 -10.32 19 -11 19 C-11 20.32 -11 21.64 -11 23 C-11.99 23 -12.98 23 -14 23 C-12.72390281 19.56475996 -11.24793093 16.61997279 -9.21484375 13.57421875 C-8.68439453 12.77822266 -8.15394531 11.98222656 -7.60742188 11.16210938 C-7.05634766 10.34548828 -6.50527344 9.52886719 -5.9375 8.6875 C-5.38255859 7.85154297 -4.82761719 7.01558594 -4.25585938 6.15429688 C-1.20263764 1.59863715 -1.20263764 1.59863715 0 0 Z " fill="#B9D4A8" transform="translate(354,247)"/>
<path d="M0 0 C0 0.99 0 1.98 0 3 C0.99 3 1.98 3 3 3 C2.67 4.32 2.34 5.64 2 7 C-3.452999 5.43181728 -7.76486783 3.96189783 -12 0 C-3.42857143 -1.28571429 -3.42857143 -1.28571429 0 0 Z " fill="#64B2DD" transform="translate(298,194)"/>
<path d="M0 0 C0.66 0 1.32 0 2 0 C2 1.65 2 3.3 2 5 C2.66 5.33 3.32 5.66 4 6 C5 8.625 5 8.625 6 12 C6.37125 13.0725 6.7425 14.145 7.125 15.25 C8.21138126 19.9059197 8.17222143 24.24477499 8 29 C5.7297764 25.5946646 4.93111768 22.35361824 4 18.4375 C3.82629883 17.72529297 3.65259766 17.01308594 3.47363281 16.27929688 C2.17168023 10.88095688 0.99810352 5.46330346 0 0 Z " fill="#C2D8B6" transform="translate(318,219)"/>
<path d="M0 0 C3.00617269 3.00617269 2.59585316 5.82381598 3 10 C5.97 10.495 5.97 10.495 9 11 C9.33 12.32 9.66 13.64 10 15 C12.64 15 15.28 15 18 15 C17.34 15.66 16.68 16.32 16 17 C10.57143041 16.79120886 7.19126817 15.42921941 3 12 C-0.20219742 8.05062318 -0.29402058 4.99834992 0 0 Z " fill="#C4DAB4" transform="translate(283,233)"/>
<path d="M0 0 C0.33 0 0.66 0 1 0 C2.19388403 31.11401495 2.19388403 31.11401495 2 46 C1.67 46 1.34 46 1 46 C0.71404261 41.21287564 0.42923999 36.4256845 0.14550781 31.63842773 C0.04882036 30.00982811 -0.04818276 28.38124719 -0.14550781 26.75268555 C-0.28533571 24.41199512 -0.42402871 22.07123978 -0.5625 19.73046875 C-0.60624756 19.00224411 -0.64999512 18.27401947 -0.69506836 17.52372742 C-0.95933198 13.03274125 -1.01790687 8.77944676 -0.5 4.3125 C-0.4071875 3.50425781 -0.314375 2.69601563 -0.21875 1.86328125 C-0.1465625 1.24839844 -0.074375 0.63351563 0 0 Z " fill="#8CC8DF" transform="translate(427,157)"/>
<path d="M0 0 C0.66 0 1.32 0 2 0 C2.33 7.59 2.66 15.18 3 23 C2.01 22.67 1.02 22.34 0 22 C0 14.74 0 7.48 0 0 Z " fill="#86C5E2" transform="translate(121,248)"/>
<path d="M0 0 C0.99 0 1.98 0 3 0 C1.43636055 3.65415742 -0.82175042 6.2119688 -3.5 9.125 C-4.2940625 9.99382812 -5.088125 10.86265625 -5.90625 11.7578125 C-7.24743753 13.19408422 -8.61045683 14.61045683 -10 16 C-10.625 13.625 -10.625 13.625 -11 11 C-10.34 10.34 -9.68 9.68 -9 9 C-8.01 9 -7.02 9 -6 9 C-6 8.34 -6 7.68 -6 7 C-5.34 7 -4.68 7 -4 7 C-3.67 5.35 -3.34 3.7 -3 2 C-2.01 2 -1.02 2 0 2 C0 1.34 0 0.68 0 0 Z " fill="#60A6D5" transform="translate(157,160)"/>
<path d="M0 0 C1.32 0 2.64 0 4 0 C6.11640803 4.23281607 6.75644461 8.33819022 6 13 C4.88424127 15.57109621 3.56540519 17.65189221 2 20 C0.68 19.67 -0.64 19.34 -2 19 C-1.01 18.67 -0.02 18.34 1 18 C3.20531425 12.59698008 3.1389338 8.69466898 2 3 C1.34 2.01 0.68 1.02 0 0 Z " fill="#7CB6CF" transform="translate(405,159)"/>
<path d="M0 0 C0.99 0.33 1.98 0.66 3 1 C3.2494783 8.29031024 2.72330907 14.90673679 1 22 C0.67 22 0.34 22 0 22 C0 14.74 0 7.48 0 0 Z " fill="#3282B5" transform="translate(176,244)"/>
<path d="M0 0 C3 1 3 1 5 4 C5.30078125 6.41015625 5.30078125 6.41015625 5.3125 9.0625 C5.33763672 10.37927734 5.33763672 10.37927734 5.36328125 11.72265625 C5.18345703 12.84994141 5.18345703 12.84994141 5 14 C4.01 14.66 3.02 15.32 2 16 C2 11.38 2 6.76 2 2 C-0.31 2 -2.62 2 -5 2 C-7.4375 1 -7.4375 1 -9 0 C-5.90998791 -1.54500605 -3.32822635 -0.58389936 0 0 Z " fill="#E9C66F" transform="translate(400,159)"/>
<path d="M0 0 C2.97 0.495 2.97 0.495 6 1 C2.375 4 2.375 4 -1 4 C-1 4.66 -1 5.32 -1 6 C-2.4160599 6.79275148 -3.83287553 7.58415312 -5.25 8.375 C-6.03890625 8.81585938 -6.8278125 9.25671875 -7.640625 9.7109375 C-9.73914197 10.85747823 -11.8536077 11.94649552 -14 13 C-14 12.01 -14 11.02 -14 10 C-12.35 9.67 -10.7 9.34 -9 9 C-9 8.34 -9 7.68 -9 7 C-7.68 6.67 -6.36 6.34 -5 6 C-5 5.01 -5 4.02 -5 3 C-3.35 2.67 -1.7 2.34 0 2 C0 1.34 0 0.68 0 0 Z " fill="#6FB1D1" transform="translate(186,138)"/>
<path d="M0 0 C1.65 0.33 3.3 0.66 5 1 C5 2.32 5 3.64 5 5 C4.01 5 3.02 5 2 5 C2.33 6.65 2.66 8.3 3 10 C0.11562221 8.70700306 -1.87219421 7.34058637 -4 5 C-3.34 5 -2.68 5 -2 5 C-2.33 4.01 -2.66 3.02 -3 2 C-2.01 2 -1.02 2 0 2 C0 1.34 0 0.68 0 0 Z " fill="#4B94C1" transform="translate(171,353)"/>
<path d="M0 0 C1.32 0.33 2.64 0.66 4 1 C3.34 2.65 2.68 4.3 2 6 C1.34 6 0.68 6 0 6 C-0.268125 6.61875 -0.53625 7.2375 -0.8125 7.875 C-2 10 -2 10 -5 12 C-5.33 10.02 -5.66 8.04 -6 6 C-5.195625 5.7525 -4.39125 5.505 -3.5625 5.25 C-0.828919 4.27761141 -0.828919 4.27761141 -0.1875 1.875 C-0.125625 1.25625 -0.06375 0.6375 0 0 Z " fill="#76BDDE" transform="translate(135,265)"/>
<path d="M0 0 C2.97 0 5.94 0 9 0 C5.83047153 3.26008643 2.60062011 6.22237877 -1 9 C-1.66 8.67 -2.32 8.34 -3 8 C-3 7.34 -3 6.68 -3 6 C-2.01 6 -1.02 6 0 6 C-0.185625 5.38125 -0.37125 4.7625 -0.5625 4.125 C-1 2 -1 2 0 0 Z " fill="#79C0E0" transform="translate(197,202)"/>
<path d="M0 0 C1.54636538 0.14368882 3.09149711 0.31701831 4.625 0.5625 C4.625 0.8925 4.625 1.2225 4.625 1.5625 C1.655 1.5625 -1.315 1.5625 -4.375 1.5625 C-4.705 3.5425 -5.035 5.5225 -5.375 7.5625 C-6.035 7.5625 -6.695 7.5625 -7.375 7.5625 C-7.643125 8.531875 -7.91125 9.50125 -8.1875 10.5 C-8.579375 11.510625 -8.97125 12.52125 -9.375 13.5625 C-10.365 13.8925 -11.355 14.2225 -12.375 14.5625 C-11.20942465 7.18925366 -8.31662931 -0.04718655 0 0 Z " fill="#82C4DC" transform="translate(154.375,177.4375)"/>
<path d="M0 0 C1.85625 0.0309375 1.85625 0.0309375 3.75 0.0625 C3.75 0.3925 3.75 0.7225 3.75 1.0625 C2.32107422 1.46082031 2.32107422 1.46082031 0.86328125 1.8671875 C-0.39097656 2.22039062 -1.64523438 2.57359375 -2.9375 2.9375 C-4.17886719 3.28554687 -5.42023438 3.63359375 -6.69921875 3.9921875 C-10.15539639 4.9724285 -10.15539639 4.9724285 -13.01953125 6.1953125 C-15.25 7.0625 -15.25 7.0625 -18.25 7.0625 C-18.25 6.4025 -18.25 5.7425 -18.25 5.0625 C-16.66800369 4.41339846 -15.08434276 3.76835306 -13.5 3.125 C-12.61828125 2.76535156 -11.7365625 2.40570313 -10.828125 2.03515625 C-7.09228102 0.6257242 -3.99532584 -0.06658876 0 0 Z " fill="#82BDDA" transform="translate(219.25,127.9375)"/>
<path d="M0 0 C0.66 0 1.32 0 2 0 C2 0.66 2 1.32 2 2 C3.65 2.33 5.3 2.66 7 3 C8.29243536 7.1196377 9.26252625 10.66831683 9 15 C4.95808535 10.50898372 2.56325559 5.41015011 0 0 Z " fill="#74B3D3" transform="translate(366,186)"/>
<path d="M0 0 C4.57071175 0.34495938 7.58325171 0.85659158 11 4 C8.69 4 6.38 4 4 4 C3.67 5.65 3.34 7.3 3 9 C0 7 0 7 -0.75 3.9375 C-0.8325 2.968125 -0.915 1.99875 -1 1 C-0.67 0.67 -0.34 0.34 0 0 Z " fill="#73BDDE" transform="translate(212,323)"/>
<path d="M0 0 C1.91731918 0.11455681 3.8338675 0.24206258 5.75 0.375 C7.35101563 0.47941406 7.35101563 0.47941406 8.984375 0.5859375 C12 1 12 1 16 3 C12.04 3 8.08 3 4 3 C3.67 3.99 3.34 4.98 3 6 C1.5 4.6875 1.5 4.6875 0 3 C0 2.01 0 1.02 0 0 Z " fill="#BBD6B6" transform="translate(269,130)"/>
<path d="M0 0 C1.32 0.66 2.64 1.32 4 2 C2.70700306 4.88437779 1.34058637 6.87219421 -1 9 C-1.33 8.01 -1.66 7.02 -2 6 C-2.99 7.485 -2.99 7.485 -4 9 C-4.99 9 -5.98 9 -7 9 C-7 8.34 -7 7.68 -7 7 C-6.34 7 -5.68 7 -5 7 C-4.731875 6.401875 -4.46375 5.80375 -4.1875 5.1875 C-3.01506533 3.02775192 -1.80630718 1.64209744 0 0 Z " fill="#5CA2CC" transform="translate(134,278)"/>
<path d="M0 0 C3.4375 2 3.4375 2 6 4 C5.01 4.495 5.01 4.495 4 5 C3.67 5.66 3.34 6.32 3 7 C3 6.01 3 5.02 3 4 C1.56359829 3.80426392 0.12580496 3.61872184 -1.3125 3.4375 C-2.11300781 3.33308594 -2.91351563 3.22867188 -3.73828125 3.12109375 C-6.16817116 2.85244822 -6.16817116 2.85244822 -9 4 C-9.66 3.34 -10.32 2.68 -11 2 C-7.33237392 -0.34728069 -4.28301385 -0.4430704 0 0 Z " fill="#B9D5AB" transform="translate(300,223)"/>
<path d="M0 0 C17.34042553 -0.76595745 17.34042553 -0.76595745 25 4 C24.67 4.66 24.34 5.32 24 6 C22.68 6 21.36 6 20 6 C20 5.01 20 4.02 20 3 C13.4 2.34 6.8 1.68 0 1 C0 0.67 0 0.34 0 0 Z " fill="#619FC5" transform="translate(391,137)"/>
<path d="M0 0 C7.59 0 15.18 0 23 0 C23 0.33 23 0.66 23 1 C14.09 1.99 14.09 1.99 5 3 C4.67 2.34 4.34 1.68 4 1 C3.34 1 2.68 1 2 1 C1.67 1.66 1.34 2.32 1 3 C0.67 2.01 0.34 1.02 0 0 Z " fill="#63B0D2" transform="translate(259,338)"/>
<path d="M0 0 C1.10313617 3.3094085 0.89941114 4.19482294 0.00390625 7.44921875 C-0.33930664 8.72055664 -0.33930664 8.72055664 -0.68945312 10.01757812 C-0.93630859 10.89865234 -1.18316406 11.77972656 -1.4375 12.6875 C-1.68048828 13.58017578 -1.92347656 14.47285156 -2.17382812 15.39257812 C-2.77509306 17.59721622 -3.38406657 19.79942345 -4 22 C-4.33 22 -4.66 22 -5 22 C-5.39608095 13.68229996 -3.81286021 7.37705562 0 0 Z " fill="#7AB7D7" transform="translate(124,214)"/>
<path d="M0 0 C1.32 0.33 2.64 0.66 4 1 C4 1.66 4 2.32 4 3 C4.99 3.33 5.98 3.66 7 4 C7.33 7.3 7.66 10.6 8 14 C5.64662777 10.86217036 4.00315795 8.22270281 2.3125 4.75 C1.65701172 3.41195312 1.65701172 3.41195312 0.98828125 2.046875 C0.66214844 1.37140625 0.33601563 0.6959375 0 0 Z " fill="#B3CFA4" transform="translate(288,165)"/>
<path d="M0 0 C7.26 0 14.52 0 22 0 C22.33 0.66 22.66 1.32 23 2 C22.01 3.485 22.01 3.485 21 5 C20.01 4.67 19.02 4.34 18 4 C18 3.01 18 2.02 18 1 C12.06 1 6.12 1 0 1 C0 0.67 0 0.34 0 0 Z " fill="#4EAFDB" transform="translate(240,131)"/>
<path d="M0 0 C2.97 0 5.94 0 9 0 C9.33 2.31 9.66 4.62 10 7 C10.99 7.33 11.98 7.66 13 8 C12.01 8.495 12.01 8.495 11 9 C9.0546875 8.07421875 9.0546875 8.07421875 6.875 6.6875 C5.78832031 6.01267578 5.78832031 6.01267578 4.6796875 5.32421875 C4.12539062 4.88722656 3.57109375 4.45023437 3 4 C3 3.34 3 2.68 3 2 C2.01 1.67 1.02 1.34 0 1 C0 0.67 0 0.34 0 0 Z " fill="#79B7D6" transform="translate(155,379)"/>
<path d="M0 0 C0.99 0.33 1.98 0.66 3 1 C1.71034824 2.37562854 0.37310707 3.70766393 -1 5 C-1.66 5 -2.32 5 -3 5 C-3 5.66 -3 6.32 -3 7 C-6.46153846 10 -6.46153846 10 -9 10 C-9 8.35 -9 6.7 -9 5 C-7.68 5.33 -6.36 5.66 -5 6 C-5.33 5.01 -5.66 4.02 -6 3 C-4.35 3 -2.7 3 -1 3 C-0.67 2.01 -0.34 1.02 0 0 Z " fill="#71B0D2" transform="translate(352,374)"/>
<path d="M0 0 C0.9384375 -0.01417969 1.876875 -0.02835938 2.84375 -0.04296875 C5.55994337 0.19270097 7.17915046 0.80265346 9.5 2.1875 C7.5625 2.75 7.5625 2.75 5.5 3.1875 C5.17 2.8575 4.84 2.5275 4.5 2.1875 C0.34392668 1.88984084 0.34392668 1.88984084 -3.5 3.25 C-6.37321524 4.59681964 -8.48168698 3.87348023 -11.5 3.1875 C-8.1500202 -0.1624798 -4.58746819 0.03150734 0 0 Z " fill="#C1DAAB" transform="translate(211.5,250.8125)"/>
<path d="M0 0 C0 0.66 0 1.32 0 2 C-0.9590625 2.1546875 -0.9590625 2.1546875 -1.9375 2.3125 C-2.618125 2.539375 -3.29875 2.76625 -4 3 C-4.33 3.99 -4.66 4.98 -5 6 C-7.5625 7.1875 -7.5625 7.1875 -10 8 C-10 8.66 -10 9.32 -10 10 C-11.65 10 -13.3 10 -15 10 C-11.63672231 6.19803392 -5.34781299 0 0 0 Z " fill="#7CBBDB" transform="translate(334,367)"/>
<path d="M0 0 C0.33 0 0.66 0 1 0 C1.49639398 5.95672771 0.26415547 9.97822235 -3 15 C-3.9706241 16.02853724 -4.96356774 17.03781074 -6 18 C-6 16.68 -6 15.36 -6 14 C-5.34 14 -4.68 14 -4 14 C-4 12.35 -4 10.7 -4 9 C-3.34 9 -2.68 9 -2 9 C-1.7834375 7.88625 -1.7834375 7.88625 -1.5625 6.75 C-1.09812508 4.47972261 -0.58136431 2.24240521 0 0 Z " fill="#81B8D5" transform="translate(427,347)"/>
<path d="M0 0 C7.26 0 14.52 0 22 0 C20 5 20 5 18 6 C18 4.35 18 2.7 18 1 C12.06 1 6.12 1 0 1 C0 0.67 0 0.34 0 0 Z " fill="#8ECBE3" transform="translate(337,334)"/>
<path d="M0 0 C0.33 0 0.66 0 1 0 C1.33 8.25 1.66 16.5 2 25 C0.68 25 -0.64 25 -2 25 C-2 24.34 -2 23.68 -2 23 C-1.34 23 -0.68 23 0 23 C0 15.41 0 7.82 0 0 Z " fill="#4992B8" transform="translate(116,249)"/>
<path d="M0 0 C3.05082939 1.01694313 3.90372675 1.72144212 6 4 C6.66 4.66 7.32 5.32 8 6 C2.31302429 6.91397824 -2.31302429 6.91397824 -8 6 C-8 5.67 -8 5.34 -8 5 C-6.576875 4.87625 -6.576875 4.87625 -5.125 4.75 C-1.89538209 4.34925077 -1.89538209 4.34925077 -0.625 1.9375 C-0.41875 1.298125 -0.2125 0.65875 0 0 Z " fill="#437DAD" transform="translate(254,250)"/>
<path d="M0 0 C-1.76997474 0.81436868 -3.54101152 1.6264294 -5.3125 2.4375 C-6.29863281 2.88996094 -7.28476563 3.34242188 -8.30078125 3.80859375 C-12.46891006 5.64836117 -14.59183534 6.07225627 -19 5 C-16.01243632 3.00829088 -13.44575614 1.97092021 -10.0625 0.8125 C-9.02222656 0.44769531 -7.98195312 0.08289063 -6.91015625 -0.29296875 C-4.04543948 -0.98896034 -2.71018643 -1.02529944 0 0 Z " fill="#87BFDF" transform="translate(222,134)"/>
<path d="M0 0 C0.33 0 0.66 0 1 0 C1.17835515 4.54805635 0.99785435 7.8794254 -1 12 C-0.01 12.33 0.98 12.66 2 13 C0.625 15 0.625 15 -1 17 C-1.66 17 -2.32 17 -3 17 C-2.48517081 11.147205 -1.54642808 5.6702363 0 0 Z " fill="#C5DBBC" transform="translate(325,270)"/>
<path d="M0 0 C0.66 0.33 1.32 0.66 2 1 C2.60107745 4.31726705 2.74433485 7.63374215 3 11 C-0.63 11 -4.26 11 -8 11 C-8 10.67 -8 10.34 -8 10 C-6.865625 9.690625 -5.73125 9.38125 -4.5625 9.0625 C-1.21224901 8.37075469 -1.21224901 8.37075469 0 7 C0.04092937 4.66702567 0.04241723 2.33294775 0 0 Z " fill="#BED8B3" transform="translate(316,263)"/>
<path d="M0 0 C3.63 0 7.26 0 11 0 C11 0.66 11 1.32 11 2 C11.99 2 12.98 2 14 2 C14.33 2.99 14.66 3.98 15 5 C14.38125 4.67 13.7625 4.34 13.125 4 C8.73788488 2.59612316 4.56848573 2.84032477 0 3 C0 2.01 0 1.02 0 0 Z " fill="#78B3D4" transform="translate(390,153)"/>
<path d="M0 0 C0.33 0 0.66 0 1 0 C1.53084792 2.91516484 2.04999055 5.83160557 2.5625 8.75 C2.71396484 9.575 2.86542969 10.4 3.02148438 11.25 C3.16005859 12.04921875 3.29863281 12.8484375 3.44140625 13.671875 C3.57232666 14.4050293 3.70324707 15.13818359 3.83813477 15.89355469 C4.01247412 18.16233287 3.66874807 19.83778579 3 22 C-1.16435422 15.75346867 -0.13682843 7.28231291 0 0 Z " fill="#83BCDA" transform="translate(118,274)"/>
<path d="M0 0 C0.71929687 0.29003906 1.43859375 0.58007812 2.1796875 0.87890625 C2.90414063 1.16636719 3.62859375 1.45382813 4.375 1.75 C4.92929687 1.97816406 5.48359375 2.20632812 6.0546875 2.44140625 C4.71484375 3.953125 4.71484375 3.953125 3.0546875 5.44140625 C-0.28723942 5.19687501 -1.55074807 4.83597068 -3.9453125 2.44140625 C-3.9453125 1.78140625 -3.9453125 1.12140625 -3.9453125 0.44140625 C-1.9453125 -0.55859375 -1.9453125 -0.55859375 0 0 Z " fill="#1B598B" transform="translate(259.9453125,249.55859375)"/>
<path d="M0 0 C0.66 0 1.32 0 2 0 C3 1.66666667 4 3.33333333 5 5 C5.66 5 6.32 5 7 5 C6.67 8.3 6.34 11.6 6 15 C3.95349609 11.93024413 3.00295435 9.30915848 1.875 5.8125 C1.52179688 4.72582031 1.16859375 3.63914063 0.8046875 2.51953125 C0.53914063 1.68808594 0.27359375 0.85664063 0 0 Z " fill="#79BAD7" transform="translate(376,204)"/>
<path d="M0 0 C0.33 0 0.66 0 1 0 C1.2358396 5.77807024 0.86783046 10.51324804 -1 16 C-1.66 16 -2.32 16 -3 16 C-3.33 16.66 -3.66 17.32 -4 18 C-2.66666667 12 -1.33333333 6 0 0 Z " fill="#7DB7D1" transform="translate(385,284)"/>
<path d="M0 0 C0.66 0.33 1.32 0.66 2 1 C1.01 3.64 0.02 6.28 -1 9 C-1.33 8.34 -1.66 7.68 -2 7 C-2.99 7 -3.98 7 -5 7 C-5 7.66 -5 8.32 -5 9 C-5.66 8.67 -6.32 8.34 -7 8 C-4.69 5.36 -2.38 2.72 0 0 Z " fill="#BDD8AA" transform="translate(198,254)"/>
<path d="M0 0 C4.8991349 1.29977048 9.37559575 2.92373687 14 5 C14 5.66 14 6.32 14 7 C8.39958947 6.57996921 4.411509 4.31423011 0 1 C0 0.67 0 0.34 0 0 Z " fill="#7BB5D4" transform="translate(85,366)"/>
<path d="M0 0 C0.66 0.33 1.32 0.66 2 1 C1.34 2.32 0.68 3.64 0 5 C-0.66 5 -1.32 5 -2 5 C-2.33 6.65 -2.66 8.3 -3 10 C-3.33 9.34 -3.66 8.68 -4 8 C-6.02463255 7.34786708 -6.02463255 7.34786708 -8 7 C-2.25 2 -2.25 2 0 2 C0 1.34 0 0.68 0 0 Z " fill="#76B6D8" transform="translate(343,358)"/>
<path d="M0 0 C0.66 0.99 1.32 1.98 2 3 C1.34 3 0.68 3 0 3 C0.04125 4.258125 0.0825 5.51625 0.125 6.8125 C0.2390374 10.29064073 0.05925681 10.91111478 -2 14 C-2.66 14 -3.32 14 -4 14 C-3.00956295 9.16371695 -2.04301154 4.52381127 0 0 Z " fill="#84C2E1" transform="translate(131,209)"/>
<path d="M0 0 C0.66 0.66 1.32 1.32 2 2 C4.06874034 2.6425235 4.06874034 2.6425235 6 3 C6 3.66 6 4.32 6 5 C8.31 5 10.62 5 13 5 C13.33 5.99 13.66 6.98 14 8 C10.52772675 7.34426494 7.14487124 6.54335352 3.75 5.5625 C2.87859375 5.31628906 2.0071875 5.07007813 1.109375 4.81640625 C-1 4 -1 4 -2 2 C-1.34 2 -0.68 2 0 2 C0 1.34 0 0.68 0 0 Z " fill="#7ABFDE" transform="translate(255,179)"/>
<path d="M0 0 C1.32 0.33 2.64 0.66 4 1 C0.7 3.31 -2.6 5.62 -6 8 C-6.66 7.67 -7.32 7.34 -8 7 C-7.375 5.125 -7.375 5.125 -6 3 C-2.875 1.75 -2.875 1.75 0 1 C0 0.67 0 0.34 0 0 Z " fill="#7AB6D6" transform="translate(339,384)"/>
<path d="M0 0 C0.66 0 1.32 0 2 0 C2.45375 1.134375 2.9075 2.26875 3.375 3.4375 C4.57095806 7.04721692 4.57095806 7.04721692 7 8 C7 9.98 7 11.96 7 14 C3.03810217 9.76486783 1.56818272 5.452999 0 0 Z " fill="#67A4C8" transform="translate(131,308)"/>
<path d="M0 0 C0.66 0.33 1.32 0.66 2 1 C2 2.65 2 4.3 2 6 C0.68 6 -0.64 6 -2 6 C-3.32 6.33 -4.64 6.66 -6 7 C-4.02 4.69 -2.04 2.38 0 0 Z M2 2 C2.99 2.495 2.99 2.495 4 3 C3.01 3.495 3.01 3.495 2 4 C2 3.34 2 2.68 2 2 Z " fill="#467BAB" transform="translate(224,272)"/>
<path d="M0 0 C0.98484375 0.11988281 1.9696875 0.23976562 2.984375 0.36328125 C3.73203125 0.47027344 4.4796875 0.57726562 5.25 0.6875 C5.25 1.0175 5.25 1.3475 5.25 1.6875 C-1.68 3.1725 -1.68 3.1725 -8.75 4.6875 C-9.08 4.0275 -9.41 3.3675 -9.75 2.6875 C-6.40914528 -0.40676782 -4.45291069 -0.58311926 0 0 Z " fill="#7FBFDB" transform="translate(232.75,187.3125)"/>
<path d="M0 0 C-0.33 0.99 -0.66 1.98 -1 3 C-1.66 3 -2.32 3 -3 3 C-3.33 3.99 -3.66 4.98 -4 6 C-6.97 5.505 -6.97 5.505 -10 5 C-6.82795656 1.48809477 -4.74687042 0 0 0 Z " fill="#67AAD1" transform="translate(98,142)"/>
<path d="M0 0 C2.5999298 2.51027705 4.99091227 4.9863684 7 8 C7 8.66 7 9.32 7 10 C5.68 10 4.36 10 3 10 C0.96564469 6.27034861 0 4.33094958 0 0 Z " fill="#5E9FC1" transform="translate(235,365)"/>
<path d="M0 0 C1.41377341 2.63904371 2.37240135 5.07120629 3 8 C2.34 7.34 1.68 6.68 1 6 C0.01 7.32 -0.98 8.64 -2 10 C-2.66 8.02 -3.32 6.04 -4 4 C-3.34 3.34 -2.68 2.68 -2 2 C-1.34 2.33 -0.68 2.66 0 3 C0 2.01 0 1.02 0 0 Z " fill="#5BAAD9" transform="translate(124,302)"/>
<path d="M0 0 C0.66 0.33 1.32 0.66 2 1 C1.34 2.32 0.68 3.64 0 5 C0.99 5.33 1.98 5.66 3 6 C3 6.99 3 7.98 3 9 C-0.65316671 7.75023244 -1.78065836 7.32901247 -4 4 C-2.68 2.68 -1.36 1.36 0 0 Z " fill="#B8D7AC" transform="translate(283,254)"/>
<path d="M0 0 C11.52164009 -0.3690205 11.52164009 -0.3690205 17 2 C17 2.33 17 2.66 17 3 C10.9981863 3.21824777 5.80766296 2.5056904 0 1 C0 0.67 0 0.34 0 0 Z " fill="#C6DBB7" transform="translate(291,251)"/>
<path d="M0 0 C0.66 0 1.32 0 2 0 C2.33 1.32 2.66 2.64 3 4 C2.01 4 1.02 4 0 4 C0 4.99 0 5.98 0 7 C-0.66 7 -1.32 7 -2 7 C-2 8.32 -2 9.64 -2 11 C-2.99 11 -3.98 11 -5 11 C-3.55049545 7.2089881 -1.84827434 3.6125362 0 0 Z " fill="#7CBCDB" transform="translate(139,193)"/>
<path d="M0 0 C0.66 0 1.32 0 2 0 C2 1.32 2 2.64 2 4 C1.01 4.495 1.01 4.495 0 5 C-0.99 6.485 -0.99 6.485 -2 8 C-3.32 8 -4.64 8 -6 8 C-4.95125002 5.37812506 -4.35068687 4.20628639 -1.875 2.75 C-1.25625 2.5025 -0.6375 2.255 0 2 C0 1.34 0 0.68 0 0 Z " fill="#78BEE0" transform="translate(162,164)"/>
<path d="M0 0 C2.9375 0.375 2.9375 0.375 6 1 C6.33 1.66 6.66 2.32 7 3 C9.02463255 3.65213292 9.02463255 3.65213292 11 4 C10.67 5.32 10.34 6.64 10 8 C8.33055479 6.85821872 6.6645052 5.71147095 5 4.5625 C4.071875 3.92441406 3.14375 3.28632813 2.1875 2.62890625 C1.465625 2.09136719 0.74375 1.55382812 0 1 C0 0.67 0 0.34 0 0 Z " fill="#86BBD6" transform="translate(329,148)"/>
<path d="M0 0 C4.29 0 8.58 0 13 0 C9.2311658 1.8844171 7.31987525 2.33429462 3.25 2.625 C2.26515625 2.69976562 1.2803125 2.77453125 0.265625 2.8515625 C-0.48203125 2.90054687 -1.2296875 2.94953125 -2 3 C-1.34 2.67 -0.68 2.34 0 2 C0 1.34 0 0.68 0 0 Z " fill="#7EBCDD" transform="translate(276,409)"/>
<path d="M0 0 C0.70511719 0.31710937 1.41023438 0.63421875 2.13671875 0.9609375 C5.12505879 2.04538286 7.65069658 2.3964359 10.8125 2.625 C12.27623047 2.73714844 12.27623047 2.73714844 13.76953125 2.8515625 C14.50558594 2.90054687 15.24164063 2.94953125 16 3 C16 3.33 16 3.66 16 4 C9.565 4.495 9.565 4.495 3 5 C2.01 3.35 1.02 1.7 0 0 Z " fill="#ADD4E6" transform="translate(256,385)"/>
<path d="M0 0 C0.33 1.32 0.66 2.64 1 4 C-1.93828597 6.50298434 -4.17902761 7.46930939 -8 8 C-5.58443874 4.80800833 -3.31996462 2.25283313 0 0 Z " fill="#B8D1AB" transform="translate(315,302)"/>
<path d="M0 0 C0.66 0.66 1.32 1.32 2 2 C1.66015625 3.828125 1.66015625 3.828125 1 6 C0.78807905 7.58025005 0.60076629 9.16398461 0.4375 10.75 C0.31181641 11.94882812 0.31181641 11.94882812 0.18359375 13.171875 C0.12300781 13.77515625 0.06242188 14.3784375 0 15 C-0.66 15 -1.32 15 -2 15 C-2.21755666 9.5610835 -2.10428384 5.12919186 0 0 Z " fill="#517FA1" transform="translate(211,291)"/>
<path d="M0 0 C1.32 0 2.64 0 4 0 C3.44449305 3.59905908 2.25112752 4.99909799 -0.5625 7.25 C-1.20316406 7.77078125 -1.84382812 8.2915625 -2.50390625 8.828125 C-2.99761719 9.21484375 -3.49132812 9.6015625 -4 10 C-3.62890625 8.078125 -3.62890625 8.078125 -3 6 C-0.9375 4.75 -0.9375 4.75 1 4 C0.67 2.68 0.34 1.36 0 0 Z " fill="#82C2DD" transform="translate(177,221)"/>
<path d="M0 0 C2.2477975 2.05233685 3.0022242 3.00667261 4 6 C4.06802967 7.72795352 4.08495645 9.45835365 4.0625 11.1875 C4.05347656 12.08855469 4.04445313 12.98960937 4.03515625 13.91796875 C4.02355469 14.60503906 4.01195312 15.29210937 4 16 C3.67 16 3.34 16 3 16 C2.49411853 14.08487728 1.99551609 12.16783078 1.5 10.25 C1.2215625 9.18265625 0.943125 8.1153125 0.65625 7.015625 C0 4 0 4 0 0 Z " fill="#68A9CC" transform="translate(423,149)"/>
<path d="M0 0 C4.95 0 9.9 0 15 0 C15.33 0.99 15.66 1.98 16 3 C10.72 2.34 5.44 1.68 0 1 C0 0.67 0 0.34 0 0 Z " fill="#7AB8D5" transform="translate(266,125)"/>
<path d="M0 0 C0.99 0 1.98 0 3 0 C2 3 2 3 -1.25 4.6875 C-4.54126631 5.83944321 -6.5872117 6.31025348 -10 6 C-9.67 5.34 -9.34 4.68 -9 4 C-7.02 4 -5.04 4 -3 4 C-3 3.34 -3 2.68 -3 2 C-2.01 2 -1.02 2 0 2 C0 1.34 0 0.68 0 0 Z " fill="#7AB4D2" transform="translate(414,367)"/>
<path d="M0 0 C0.33 0 0.66 0 1 0 C1.3125 3.25 1.3125 3.25 1 7 C-1.5 9.4375 -1.5 9.4375 -4 11 C-4 7.80389448 -3.45328458 6.58282374 -2 3.8125 C-1.62875 3.09707031 -1.2575 2.38164062 -0.875 1.64453125 C-0.441875 0.83048828 -0.441875 0.83048828 0 0 Z " fill="#76B7D4" transform="translate(374,317)"/>
<path d="M0 0 C0.33 0.66 0.66 1.32 1 2 C0.37943989 3.68437744 -0.29289322 5.35008418 -1 7 C-1.35858516 8.32676508 -1.7018576 9.65835921 -2 11 C-3.32 10.34 -4.64 9.68 -6 9 C-4.02 6.03 -2.04 3.06 0 0 Z " fill="#B6D5A4" transform="translate(372,220)"/>
<path d="M0 0 C5.66104589 0.49658297 9.87674471 1.54510684 15 4 C14.67 4.66 14.34 5.32 14 6 C9.27934033 4.45730076 4.58335908 2.92205381 0 1 C0 0.67 0 0.34 0 0 Z " fill="#8AC0D9" transform="translate(300,133)"/>
<path d="M0 0 C5.39449293 -0.27429625 8.51925805 -0.36055646 13 3 C9.57056481 4.18771723 7.62215325 3.80226223 4.25 2.5625 C3.45078125 2.27503906 2.6515625 1.98757813 1.828125 1.69140625 C1.22484375 1.46324219 0.6215625 1.23507812 0 1 C0 0.67 0 0.34 0 0 Z " fill="#72B1D4" transform="translate(203,405)"/>
<path d="M0 0 C1.65 0 3.3 0 5 0 C4.67 0.99 4.34 1.98 4 3 C1.93359375 3.94921875 1.93359375 3.94921875 -0.5625 4.6875 C-1.38878906 4.93886719 -2.21507812 5.19023437 -3.06640625 5.44921875 C-3.70449219 5.63097656 -4.34257812 5.81273437 -5 6 C-5 5.34 -5 4.68 -5 4 C-3.68 4 -2.36 4 -1 4 C-0.67 2.68 -0.34 1.36 0 0 Z " fill="#6AACD2" transform="translate(318,395)"/>
<path d="M0 0 C2 3 2 3 2 5 C0.02 5.33 -1.96 5.66 -4 6 C-4.66 4.35 -5.32 2.7 -6 1 C-4.7934375 1.0309375 -4.7934375 1.0309375 -3.5625 1.0625 C-1.06645115 1.29633621 -1.06645115 1.29633621 0 0 Z " fill="#63AEDA" transform="translate(86,358)"/>
<path d="M0 0 C0.66 0.33 1.32 0.66 2 1 C-0.64 2.98 -3.28 4.96 -6 7 C-6 6.34 -6 5.68 -6 5 C-6.99 4.67 -7.98 4.34 -9 4 C-7.54618103 3.30300448 -6.08677047 2.61766134 -4.625 1.9375 C-3.40683594 1.36322266 -3.40683594 1.36322266 -2.1640625 0.77734375 C-1.44992188 0.52082031 -0.73578125 0.26429688 0 0 Z " fill="#457CA5" transform="translate(241,263)"/>
<path d="M0 0 C1.4391134 0.28359887 2.87625518 0.57721399 4.3125 0.875 C5.11300781 1.03742188 5.91351563 1.19984375 6.73828125 1.3671875 C9 2 9 2 12 4 C8.7 4 5.4 4 2 4 C1.34 2.68 0.68 1.36 0 0 Z " fill="#4F7BA3" transform="translate(263,263)"/>
<path d="M0 0 C0.66 0 1.32 0 2 0 C0.68775452 3.93673644 -0.91910327 6.22719294 -4 9 C-4.33 8.01 -4.66 7.02 -5 6 C-2.6875 2.8125 -2.6875 2.8125 0 0 Z " fill="#BBD7A7" transform="translate(342,255)"/>
<path d="M0 0 C0.99 0 1.98 0 3 0 C3 0.66 3 1.32 3 2 C2.34 2 1.68 2 1 2 C0.731875 2.61875 0.46375 3.2375 0.1875 3.875 C-1 6 -1 6 -4 8 C-4 6.35 -4 4.7 -4 3 C-2.68 2.67 -1.36 2.34 0 2 C0 1.34 0 0.68 0 0 Z " fill="#8FC7DF" transform="translate(152,250)"/>
<path d="M0 0 C3.33511388 2.9901021 5.21521119 5.89498574 7 10 C7 10.66 7 11.32 7 12 C6.01 11.67 5.02 11.34 4 11 C4.33 10.34 4.66 9.68 5 9 C4.01 8.67 3.02 8.34 2 8 C1.26953125 6.15234375 1.26953125 6.15234375 0.8125 3.9375 C0.65394531 3.20402344 0.49539063 2.47054687 0.33203125 1.71484375 C0.22246094 1.14894531 0.11289062 0.58304688 0 0 Z " fill="#C1D8B3" transform="translate(362,188)"/>
<path d="M0 0 C1.98 0 3.96 0 6 0 C1.375 4.875 1.375 4.875 -2 6 C-2 4.68 -2 3.36 -2 2 C-1.34 2 -0.68 2 0 2 C0 1.34 0 0.68 0 0 Z " fill="#77B6D7" transform="translate(165,152)"/>
<path d="M0 0 C1.93816735 0.1141866 3.87555099 0.24173423 5.8125 0.375 C6.89144531 0.44460937 7.97039062 0.51421875 9.08203125 0.5859375 C12 1 12 1 15 3 C13.0085944 3.38133299 11.00720923 3.71325582 9 4 C8.67 3.67 8.34 3.34 8 3 C6.48530552 2.76807135 4.96245438 2.58784762 3.4375 2.4375 C2.61121094 2.35371094 1.78492188 2.26992187 0.93359375 2.18359375 C0.29550781 2.12300781 -0.34257812 2.06242187 -1 2 C-0.67 1.34 -0.34 0.68 0 0 Z " fill="#6DB2D1" transform="translate(271,103)"/>
<path d="M0 0 C4.95 0 9.9 0 15 0 C15 0.33 15 0.66 15 1 C12.87630763 1.36192504 10.7509887 1.71431747 8.625 2.0625 C6.84996094 2.35833984 6.84996094 2.35833984 5.0390625 2.66015625 C2 3 2 3 0 2 C0 1.34 0 0.68 0 0 Z " fill="#4D9CC4" transform="translate(230,393)"/>
<path d="M0 0 C0.33 0 0.66 0 1 0 C1.268125 0.9075 1.53625 1.815 1.8125 2.75 C2.90316248 5.73497101 4.06802855 7.54112724 6 10 C6 10.66 6 11.32 6 12 C4.125 11.8125 4.125 11.8125 2 11 C-0.09242143 7.3382625 -0.19324053 4.15467129 0 0 Z " fill="#639ABB" transform="translate(186,299)"/>
<path d="M0 0 C0.66 0 1.32 0 2 0 C2 0.66 2 1.32 2 2 C2.99 2 3.98 2 5 2 C5.33 5.3 5.66 8.6 6 12 C4 8 2 4 0 0 Z " fill="#B8D3AC" transform="translate(312,206)"/>
<path d="M0 0 C0.66 0 1.32 0 2 0 C0.68775452 3.93673644 -0.91910327 6.22719294 -4 9 C-4.625 6.625 -4.625 6.625 -5 4 C-4.34 3.34 -3.68 2.68 -3 2 C-2.01 2 -1.02 2 0 2 C0 1.34 0 0.68 0 0 Z " fill="#72B3D8" transform="translate(151,167)"/>
<path d="M0 0 C0.66 0.33 1.32 0.66 2 1 C2.625 3.0625 2.625 3.0625 3 5 C0.69 5.33 -1.62 5.66 -4 6 C-4 5.34 -4 4.68 -4 4 C-3.34 4 -2.68 4 -2 4 C-1.34 2.68 -0.68 1.36 0 0 Z " fill="#64ADD4" transform="translate(86,147)"/>
<path d="M0 0 C0.33 0.66 0.66 1.32 1 2 C0.21625 2.598125 -0.5675 3.19625 -1.375 3.8125 C-4.14574323 5.91085249 -4.14574323 5.91085249 -6 9 C-7.32 8.67 -8.64 8.34 -10 8 C-6.7 5.36 -3.4 2.72 0 0 Z " fill="#7DB8D6" transform="translate(161,131)"/>
<path d="M0 0 C-2.73704754 2.73704754 -5.26044774 3.16182449 -9 4 C-11.4375 3.625 -11.4375 3.625 -13 3 C-8.44573816 0.33409063 -5.26053037 -0.31563182 0 0 Z " fill="#78B6D4" transform="translate(302,405)"/>
<path d="M0 0 C4.29 0.66 8.58 1.32 13 2 C13 2.33 13 2.66 13 3 C11.40012764 3.27615058 9.794667 3.52007625 8.1875 3.75 C7.29417969 3.88921875 6.40085938 4.0284375 5.48046875 4.171875 C4.66191406 4.11515625 3.84335938 4.0584375 3 4 C2.01 2.68 1.02 1.36 0 0 Z " fill="#7EB4D7" transform="translate(217,389)"/>
<path d="M0 0 C1.98 0 3.96 0 6 0 C6.33 0.99 6.66 1.98 7 3 C5.02 3.66 3.04 4.32 1 5 C0.67 3.35 0.34 1.7 0 0 Z " fill="#2F85BA" transform="translate(192,370)"/>
<path d="M0 0 C0.66 0.33 1.32 0.66 2 1 C1.67 2.32 1.34 3.64 1 5 C1.99 5 2.98 5 4 5 C4 5.66 4 6.32 4 7 C4.66 7 5.32 7 6 7 C6 7.99 6 8.98 6 10 C5.401875 9.690625 4.80375 9.38125 4.1875 9.0625 C1.91043228 7.89790296 1.91043228 7.89790296 -1 7 C-0.67 4.69 -0.34 2.38 0 0 Z " fill="#3285BB" transform="translate(203,326)"/>
<path d="M0 0 C3.465 1.98 3.465 1.98 7 4 C6.01 4.33 5.02 4.66 4 5 C3.01 5.495 3.01 5.495 2 6 C1.67 6.99 1.34 7.98 1 9 C-0.61949011 6.42786866 -1.04408751 5.32330841 -0.625 2.25 C-0.41875 1.5075 -0.2125 0.765 0 0 Z " fill="#8FC6E1" transform="translate(210,319)"/>
<path d="M0 0 C1.65 0 3.3 0 5 0 C4.67 0.66 4.34 1.32 4 2 C3.34 2 2.68 2 2 2 C2 2.66 2 3.32 2 4 C1.34 4 0.68 4 0 4 C0 4.66 0 5.32 0 6 C-0.66 6 -1.32 6 -2 6 C-2.33 6.66 -2.66 7.32 -3 8 C-3.33 7.01 -3.66 6.02 -4 5 C-3.34 4.54625 -2.68 4.0925 -2 3.625 C-1.34 3.08875 -0.68 2.5525 0 2 C0 1.34 0 0.68 0 0 Z " fill="#C0D6B1" transform="translate(217,263)"/>
<path d="M0 0 C0 3 0 3 -1.3125 4.38671875 C-2.875 5.59114583 -4.4375 6.79557292 -6 8 C-6.33 6.68 -6.66 5.36 -7 4 C-4.69 2.68 -2.38 1.36 0 0 Z " fill="#8BC5E3" transform="translate(165,238)"/>
<path d="M0 0 C2 1.375 2 1.375 4 3 C4 3.66 4 4.32 4 5 C4.66 5 5.32 5 6 5 C6 5.66 6 6.32 6 7 C6.66 7 7.32 7 8 7 C7.67 7.66 7.34 8.32 7 9 C6.01 8.67 5.02 8.34 4 8 C3.67 7.34 3.34 6.68 3 6 C2.01 5.34 1.02 4.68 0 4 C0 2.68 0 1.36 0 0 Z " fill="#78B0D2" transform="translate(146,343)"/>
<path d="M0 0 C0.99 0.33 1.98 0.66 3 1 C3 1.66 3 2.32 3 3 C3.66 3 4.32 3 5 3 C5.33 4.65 5.66 6.3 6 8 C5.01 8.495 5.01 8.495 4 9 C0 2.25 0 2.25 0 0 Z " fill="#B1D1AB" transform="translate(302,189)"/>
<path d="M0 0 C0.99 1.32 1.98 2.64 3 4 C2.01 4.33 1.02 4.66 0 5 C-0.33 5.99 -0.66 6.98 -1 8 C-1.66 7.34 -2.32 6.68 -3 6 C-3 5.01 -3 4.02 -3 3 C-2.01 3 -1.02 3 0 3 C0 2.01 0 1.02 0 0 Z " fill="#3684B7" transform="translate(211,336)"/>
<path d="M0 0 C-1.75 5.75 -1.75 5.75 -4 8 C-3.95875 7.21625 -3.9175 6.4325 -3.875 5.625 C-3.71271266 2.83883881 -3.71271266 2.83883881 -6 1 C-4 0 -4 0 0 0 Z " fill="#BAD5AA" transform="translate(368,320)"/>
<path d="M0 0 C0.99 0 1.98 0 3 0 C3 0.66 3 1.32 3 2 C3.66 2.33 4.32 2.66 5 3 C2.29120665 4.35439668 -0.00933268 4.06501451 -3 4 C-3.33 3.34 -3.66 2.68 -4 2 C-2.68 2 -1.36 2 0 2 C0 1.34 0 0.68 0 0 Z " fill="#165587" transform="translate(246,250)"/>
<path d="M0 0 C0.66 0.99 1.32 1.98 2 3 C1.1025444 6.06630664 0.26961192 7.73038808 -2 10 C-2.33 9.01 -2.66 8.02 -3 7 C-2.34 7 -1.68 7 -1 7 C-1.020625 6.030625 -1.04125 5.06125 -1.0625 4.0625 C-1 1 -1 1 0 0 Z " fill="#C4DCB8" transform="translate(372,206)"/>
<path d="M0 0 C2 1 2 1 3.125 4.0625 C3.41375 5.031875 3.7025 6.00125 4 7 C0.34683329 5.75023244 -0.78065836 5.32901247 -3 2 C-2.01 2 -1.02 2 0 2 C0 1.34 0 0.68 0 0 Z " fill="#A2CCD9" transform="translate(304,202)"/>
<path d="M0 0 C-0.625 2.375 -0.625 2.375 -2 5 C-5.125 6.3125 -5.125 6.3125 -8 7 C-8 6.34 -8 5.68 -8 5 C-2.52380952 0 -2.52380952 0 0 0 Z " fill="#8FC9E3" transform="translate(172,157)"/>
<path d="M0 0 C2.62187494 1.04874998 3.79371361 1.64931313 5.25 4.125 C5.4975 4.74375 5.745 5.3625 6 6 C4.35 6 2.7 6 1 6 C0 1.125 0 1.125 0 0 Z " fill="#72B4D4" transform="translate(416,142)"/>
<path d="M0 0 C3.93673644 1.31224548 6.22719294 2.91910327 9 6 C6.1875 5.8125 6.1875 5.8125 3 5 C1.125 2.4375 1.125 2.4375 0 0 Z " fill="#88BED9" transform="translate(334,125)"/>
<path d="M0 0 C0 0.66 0 1.32 0 2 C-4.07369424 4.03684712 -6.58937864 4.0257259 -11 3 C-11 2.67 -11 2.34 -11 2 C-3.375 0 -3.375 0 0 0 Z " fill="#3495CC" transform="translate(240,394)"/>
<path d="M0 0 C0.33 0.66 0.66 1.32 1 2 C1.99 2.33 2.98 2.66 4 3 C4 3.66 4 4.32 4 5 C2.35 4.67 0.7 4.34 -1 4 C-1 4.66 -1 5.32 -1 6 C-1.99 5.67 -2.98 5.34 -4 5 C-3.34 4.67 -2.68 4.34 -2 4 C-0.86649466 1.98330173 -0.86649466 1.98330173 0 0 Z " fill="#63A5CF" transform="translate(231,360)"/>
<path d="M0 0 C2.5 2.3125 2.5 2.3125 5 5 C5 5.99 5 6.98 5 8 C4.01 8 3.02 8 2 8 C1.34 5.36 0.68 2.72 0 0 Z " fill="#77A9CD" transform="translate(216,341)"/>
<path d="M0 0 C0.66 0.99 1.32 1.98 2 3 C1.3125 5.625 1.3125 5.625 0 8 C-0.99 8.33 -1.98 8.66 -3 9 C-2.01 6.03 -1.02 3.06 0 0 Z " fill="#75B8D8" transform="translate(378,308)"/>
<path d="M0 0 C0.33 0 0.66 0 1 0 C1.33 2.97 1.66 5.94 2 9 C1.01 9 0.02 9 -1 9 C-1.09765625 2.84765625 -1.09765625 2.84765625 -1 1 C-0.67 0.67 -0.34 0.34 0 0 Z " fill="#3484B7" transform="translate(177,266)"/>
<path d="M0 0 C1.65 0 3.3 0 5 0 C4.34 1.32 3.68 2.64 3 4 C2.34 4 1.68 4 1 4 C1 4.66 1 5.32 1 6 C0.01 5.67 -0.98 5.34 -2 5 C-1.34 5 -0.68 5 0 5 C0 3.35 0 1.7 0 0 Z " fill="#4D7EA7" transform="translate(266,248)"/>
<path d="M0 0 C0.99 0 1.98 0 3 0 C2.01 2.97 1.02 5.94 0 9 C-0.33 9 -0.66 9 -1 9 C-1.125 2.25 -1.125 2.25 0 0 Z " fill="#7DBBD7" transform="translate(129,198)"/>
<path d="M0 0 C2.97 0.33 5.94 0.66 9 1 C9.33 1.99 9.66 2.98 10 4 C6.44219804 3.39009109 3.3171411 2.4216319 0 1 C0 0.67 0 0.34 0 0 Z " fill="#82C2DD" transform="translate(269,187)"/>
<path d="M0 0 C2.97 0.495 2.97 0.495 6 1 C6.33 2.98 6.66 4.96 7 7 C5.83040013 6.02433888 4.66438823 5.044375 3.5 4.0625 C2.8503125 3.51722656 2.200625 2.97195312 1.53125 2.41015625 C1.0259375 1.94480469 0.520625 1.47945312 0 1 C0 0.67 0 0.34 0 0 Z " fill="#7BB8D3" transform="translate(340,156)"/>
<path d="M0 0 C0 0.66 0 1.32 0 2 C-3.96 1.67 -7.92 1.34 -12 1 C-12 0.67 -12 0.34 -12 0 C-7.6835078 -0.76173392 -4.25566547 -1.16063604 0 0 Z " fill="#4598CA" transform="translate(288,392)"/>
<path d="M0 0 C2.64 0 5.28 0 8 0 C8.33 1.65 8.66 3.3 9 5 C5.54074837 3.7508258 2.85306797 2.32472205 0 0 Z " fill="#67A4CA" transform="translate(184,370)"/>
<path d="M0 0 C0.66 0.33 1.32 0.66 2 1 C2 1.33 2 1.66 2 2 C4.31 2.33 6.62 2.66 9 3 C9 3.33 9 3.66 9 4 C5.37 4 1.74 4 -2 4 C-1.34 2.68 -0.68 1.36 0 0 Z " fill="#CEDEC8" transform="translate(271,330)"/>
<path d="M0 0 C0.66 0.33 1.32 0.66 2 1 C2 1.66 2 2.32 2 3 C2.66 3 3.32 3 4 3 C4.66 4.65 5.32 6.3 6 8 C4.68 7.34 3.36 6.68 2 6 C2 5.34 2 4.68 2 4 C1.01 4 0.02 4 -1 4 C-0.67 2.68 -0.34 1.36 0 0 Z " fill="#74A8CB" transform="translate(205,327)"/>
<path d="M0 0 C0.66 0.99 1.32 1.98 2 3 C1.1028125 3.1546875 1.1028125 3.1546875 0.1875 3.3125 C-2.28243264 4.08876455 -3.32251235 5.07088921 -5 7 C-5.99 6.34 -6.98 5.68 -8 5 C-4.04 2.525 -4.04 2.525 0 0 Z " fill="#C5DBB9" transform="translate(298,317)"/>
<path d="M0 0 C0.99 0.33 1.98 0.66 3 1 C2.67 3.64 2.34 6.28 2 9 C-0.29013653 5.5647952 -0.17842973 4.014669 0 0 Z " fill="#66A0C6" transform="translate(129,299)"/>
<path d="M0 0 C1.98 0.99 1.98 0.99 4 2 C4 2.66 4 3.32 4 4 C4.66 4 5.32 4 6 4 C6 4.66 6 5.32 6 6 C4.35 6 2.7 6 1 6 C0.4465236 3.92446352 0 2.15634036 0 0 Z " fill="#5785AB" transform="translate(282,272)"/>
<path d="M0 0 C-4.75 4 -4.75 4 -7 4 C-6.625 2.0625 -6.625 2.0625 -6 0 C-3.50907189 -1.24546405 -2.58919267 -0.7767578 0 0 Z " fill="#B9D9AE" transform="translate(308,244)"/>
<path d="M0 0 C0.33 0 0.66 0 1 0 C1.144375 1.051875 1.28875 2.10375 1.4375 3.1875 C1.87526966 6.15460549 2.37804866 9.06794366 3 12 C2.67 11.34 2.34 10.68 2 10 C1.34 10 0.68 10 0 10 C-1.125 2.25 -1.125 2.25 0 0 Z " fill="#449AC2" transform="translate(382,212)"/>
<path d="M0 0 C1.32 0.33 2.64 0.66 4 1 C4 1.66 4 2.32 4 3 C3.21625 3.268125 2.4325 3.53625 1.625 3.8125 C-1.28114923 4.84814432 -1.28114923 4.84814432 -3 8 C-2.45276317 4.62537285 -1.9451 2.91765 0 0 Z " fill="#76B4DA" transform="translate(81,153)"/>
<path d="M0 0 C5.75 1.75 5.75 1.75 8 4 C6.68 4.33 5.36 4.66 4 5 C4 4.34 4 3.68 4 3 C2.35 2.67 0.7 2.34 -1 2 C-0.67 1.34 -0.34 0.68 0 0 Z " fill="#78B5D5" transform="translate(317,116)"/>
<path d="M0 0 C2.97 1.65 5.94 3.3 9 5 C7.68 5.33 6.36 5.66 5 6 C4.01 5.34 3.02 4.68 2 4 C2 3.34 2 2.68 2 2 C1.34 2 0.68 2 0 2 C0 1.34 0 0.68 0 0 Z " fill="#7DBED9" transform="translate(173,368)"/>
<path d="M0 0 C1 3 1 3 1 5 C0.01 5 -0.98 5 -2 5 C-2.33 6.32 -2.66 7.64 -3 9 C-3.66 9 -4.32 9 -5 9 C-3.7508258 5.54074837 -2.32472205 2.85306797 0 0 Z " fill="#9BCEE1" transform="translate(368,328)"/>
<path d="M0 0 C0.99 0.33 1.98 0.66 3 1 C3 2.65 3 4.3 3 6 C2.01 6 1.02 6 0 6 C-0.38218767 4.34385343 -0.71395102 2.67542976 -1 1 C-0.67 0.67 -0.34 0.34 0 0 Z " fill="#4FAEE2" transform="translate(216,326)"/>
<path d="M0 0 C2.12508244 3.18762365 2.5020163 5.26512223 3 9 C2.01 8.67 1.02 8.34 0 8 C-1.125 2.25 -1.125 2.25 0 0 Z " fill="#5487B0" transform="translate(294,287)"/>
<path d="M0 0 C0.33 0 0.66 0 1 0 C1.33 2.31 1.66 4.62 2 7 C0.35 7 -1.3 7 -3 7 C-1.125 2.25 -1.125 2.25 0 0 Z " fill="#5387AD" transform="translate(217,279)"/>
<path d="M0 0 C0.268125 0.639375 0.53625 1.27875 0.8125 1.9375 C1.88667752 4.33131686 1.88667752 4.33131686 5 5 C4.34 5.66 3.68 6.32 3 7 C2.01 7 1.02 7 0 7 C0 4.69 0 2.38 0 0 Z " fill="#8BC2DC" transform="translate(123,275)"/>
<path d="M0 0 C2.475 0.495 2.475 0.495 5 1 C5.66 3.31 6.32 5.62 7 8 C4.35247996 5.42215154 2.05567935 3.08351902 0 0 Z " fill="#C5D8B6" transform="translate(288,265)"/>
<path d="M0 0 C0.66 0.99 1.32 1.98 2 3 C1.01 4.32 0.02 5.64 -1 7 C-1.99 6.67 -2.98 6.34 -4 6 C-2.68 4.02 -1.36 2.04 0 0 Z " fill="#B7D4A5" transform="translate(362,235)"/>
<path d="M0 0 C0.66 0.33 1.32 0.66 2 1 C1.40138258 3.35171131 0.73075648 5.6859378 0 8 C-0.99 8.495 -0.99 8.495 -2 9 C-2.33 7.02 -2.66 5.04 -3 3 C-2.34 3 -1.68 3 -1 3 C-0.67 2.01 -0.34 1.02 0 0 Z " fill="#97B6CA" transform="translate(185,224)"/>
<path d="M0 0 C0.99 0.33 1.98 0.66 3 1 C0.36 2.65 -2.28 4.3 -5 6 C-5.66 5.34 -6.32 4.68 -7 4 C-5.35 3.67 -3.7 3.34 -2 3 C-2 2.34 -2 1.68 -2 1 C-1.34 0.67 -0.68 0.34 0 0 Z " fill="#8DC5E2" transform="translate(212,196)"/>
<path d="M0 0 C0.99 0.495 0.99 0.495 2 1 C2 1.99 2 2.98 2 4 C2.66 4 3.32 4 4 4 C4.33 5.32 4.66 6.64 5 8 C3.68 7.67 2.36 7.34 1 7 C0.67 4.69 0.34 2.38 0 0 Z " fill="#94CCE0" transform="translate(297,190)"/>
<path d="M0 0 C3.66881155 0.70554068 6.70450534 2.27735506 10 4 C6.34017193 5.21994269 5.41884698 4.49026663 2 3 C1.34 3 0.68 3 0 3 C0 2.01 0 1.02 0 0 Z " fill="#BFD9B2" transform="translate(307,141)"/>
<path d="M0 0 C2.475 0.495 2.475 0.495 5 1 C5.33 2.65 5.66 4.3 6 6 C3.37812506 4.95125002 2.20628639 4.35068687 0.75 1.875 C0.5025 1.25625 0.255 0.6375 0 0 Z " fill="#83BDD8" transform="translate(239,363)"/>
<path d="M0 0 C2 1.8125 2 1.8125 4 4 C4 4.99 4 5.98 4 7 C2.68 6.67 1.36 6.34 0 6 C0 4.02 0 2.04 0 0 Z " fill="#3087B9" transform="translate(156,341)"/>
<path d="M0 0 C0.66 0.33 1.32 0.66 2 1 C2 2.98 2 4.96 2 7 C0.68 7 -0.64 7 -2 7 C-2 6.34 -2 5.68 -2 5 C-1.34 5 -0.68 5 0 5 C0 3.35 0 1.7 0 0 Z " fill="#529FC3" transform="translate(116,267)"/>
<path d="M0 0 C0.33 0.99 0.66 1.98 1 3 C0.01 4.485 0.01 4.485 -1 6 C-2.32 5.67 -3.64 5.34 -5 5 C-3.35 3.35 -1.7 1.7 0 0 Z " fill="#7DB6D2" transform="translate(154,257)"/>
<path d="M0 0 C0.99 0.33 1.98 0.66 3 1 C3 4.63 3 8.26 3 12 C2.67 12 2.34 12 2 12 C1.855625 10.7625 1.71125 9.525 1.5625 8.25 C1.21311498 5.43495501 0.79620634 2.7298503 0 0 Z " fill="#3F80AD" transform="translate(176,244)"/>
<path d="M0 0 C0.33 1.32 0.66 2.64 1 4 C-1.475 5.485 -1.475 5.485 -4 7 C-4.33 6.34 -4.66 5.68 -5 5 C-4.34 5 -3.68 5 -3 5 C-3 4.34 -3 3.68 -3 3 C-2.34 3 -1.68 3 -1 3 C-0.67 2.01 -0.34 1.02 0 0 Z " fill="#70AACD" transform="translate(167,243)"/>
<path d="M0 0 C1.04449911 3.13349732 0.93423645 3.98968256 0 7 C-0.66 7 -1.32 7 -2 7 C-2 6.34 -2 5.68 -2 5 C-2.66 4.67 -3.32 4.34 -4 4 C-3.34 4 -2.68 4 -2 4 C-2 3.01 -2 2.02 -2 1 C-1.34 0.67 -0.68 0.34 0 0 Z " fill="#3F7FA9" transform="translate(183,228)"/>
<path d="M0 0 C3.16115776 1.36983503 3.9927092 1.9890638 6 5 C5.01 5.495 5.01 5.495 4 6 C4 5.34 4 4.68 4 4 C2.68 4 1.36 4 0 4 C0 2.68 0 1.36 0 0 Z " fill="#4375A1" transform="translate(268,212)"/>
<path d="M0 0 C2.31 0 4.62 0 7 0 C7 0.99 7 1.98 7 3 C3.48283697 3 2.62878252 2.17554415 0 0 Z " fill="#8DC3DE" transform="translate(286,194)"/>
<path d="M0 0 C0.99 0 1.98 0 3 0 C2.39816251 2.02045442 1.72693904 4.02111039 1 6 C0.01 6.495 0.01 6.495 -1 7 C-0.67 4.69 -0.34 2.38 0 0 Z " fill="#76B7D1" transform="translate(134,189)"/>
<path d="M0 0 C1.32 0.33 2.64 0.66 4 1 C4.33 3.64 4.66 6.28 5 9 C2.67527795 6.14693203 1.2491742 3.45925163 0 0 Z " fill="#BBD5B3" transform="translate(291,170)"/>
<path d="M0 0 C3.465 1.485 3.465 1.485 7 3 C6.67 3.66 6.34 4.32 6 5 C4.68 5 3.36 5 2 5 C2 4.01 2 3.02 2 2 C1.34 2 0.68 2 0 2 C0 1.34 0 0.68 0 0 Z " fill="#6DACD0" transform="translate(409,138)"/>
<path d="M0 0 C2.475 0.99 2.475 0.99 5 2 C4.67 2.66 4.34 3.32 4 4 C1.9375 4.625 1.9375 4.625 0 5 C-0.33 4.01 -0.66 3.02 -1 2 C-0.67 1.34 -0.34 0.68 0 0 Z " fill="#61ACD2" transform="translate(325,120)"/>
<path d="M0 0 C1.32 0.66 2.64 1.32 4 2 C3.01 2 2.02 2 1 2 C0.67 2.99 0.34 3.98 0 5 C-1.32 4.67 -2.64 4.34 -4 4 C-4 3.34 -4 2.68 -4 2 C-2.68 2 -1.36 2 0 2 C0 1.34 0 0.68 0 0 Z " fill="#53A9D8" transform="translate(313,114)"/>
<path d="" fill="#FFFFFF" transform="translate(0,0)"/>
<path d="" fill="#FFFFFF" transform="translate(0,0)"/>
<path d="" fill="#FFFFFF" transform="translate(0,0)"/>
<path d="" fill="#FFFFFF" transform="translate(0,0)"/>
<path d="" fill="#FFFFFF" transform="translate(0,0)"/>
<path d="" fill="#FFFFFF" transform="translate(0,0)"/>
<path d="" fill="#FFFFFF" transform="translate(0,0)"/>
<path d="" fill="#FFFFFF" transform="translate(0,0)"/>
<path d="" fill="#FFFFFF" transform="translate(0,0)"/>
<path d="" fill="#FFFFFF" transform="translate(0,0)"/>
<path d="" fill="#FFFFFF" transform="translate(0,0)"/>
<path d="" fill="#FFFFFF" transform="translate(0,0)"/>
<path d="" fill="#FFFFFF" transform="translate(0,0)"/>
<path d="" fill="#FFFFFF" transform="translate(0,0)"/>
<path d="" fill="#FFFFFF" transform="translate(0,0)"/>
<path d="" fill="#FFFFFF" transform="translate(0,0)"/>
<path d="" fill="#FFFFFF" transform="translate(0,0)"/>
<path d="" fill="#FFFFFF" transform="translate(0,0)"/>
<path d="" fill="#FFFFFF" transform="translate(0,0)"/>
<path d="" fill="#FFFFFF" transform="translate(0,0)"/>
<path d="" fill="#FFFFFF" transform="translate(0,0)"/>
<path d="" fill="#FFFFFF" transform="translate(0,0)"/>
<path d="" fill="#FFFFFF" transform="translate(0,0)"/>
<path d="" fill="#FFFFFF" transform="translate(0,0)"/>
<path d="" fill="#FFFFFF" transform="translate(0,0)"/>
<path d="" fill="#FFFFFF" transform="translate(0,0)"/>
<path d="" fill="#FFFFFF" transform="translate(0,0)"/>
<path d="" fill="#FFFFFF" transform="translate(0,0)"/>
<path d="" fill="#FFFFFF" transform="translate(0,0)"/>
<path d="" fill="#FFFFFF" transform="translate(0,0)"/>
<path d="" fill="#FFFFFF" transform="translate(0,0)"/>
<path d="" fill="#FFFFFF" transform="translate(0,0)"/>
<path d="" fill="#FFFFFF" transform="translate(0,0)"/>
<path d="" fill="#FFFFFF" transform="translate(0,0)"/>
<path d="" fill="#FFFFFF" transform="translate(0,0)"/>
<path d="" fill="#FFFFFF" transform="translate(0,0)"/>
<path d="" fill="#FFFFFF" transform="translate(0,0)"/>
<path d="" fill="#FFFFFF" transform="translate(0,0)"/>
<path d="" fill="#FFFFFF" transform="translate(0,0)"/>
<path d="" fill="#FFFFFF" transform="translate(0,0)"/>
<path d="" fill="#FFFFFF" transform="translate(0,0)"/>
<path d="" fill="#FFFFFF" transform="translate(0,0)"/>
<path d="" fill="#FFFFFF" transform="translate(0,0)"/>
<path d="" fill="#FFFFFF" transform="translate(0,0)"/>
<path d="" fill="#FFFFFF" transform="translate(0,0)"/>
<path d="" fill="#FFFFFF" transform="translate(0,0)"/>
<path d="" fill="#FFFFFF" transform="translate(0,0)"/>
<path d="" fill="#FFFFFF" transform="translate(0,0)"/>
<path d="" fill="#FFFFFF" transform="translate(0,0)"/>
<path d="" fill="#FFFFFF" transform="translate(0,0)"/>
<path d="" fill="#FFFFFF" transform="translate(0,0)"/>
<path d="" fill="#FFFFFF" transform="translate(0,0)"/>
<path d="" fill="#FFFFFF" transform="translate(0,0)"/>
<path d="" fill="#FFFFFF" transform="translate(0,0)"/>
<path d="" fill="#FFFFFF" transform="translate(0,0)"/>
<path d="" fill="#FFFFFF" transform="translate(0,0)"/>
<path d="" fill="#FFFFFF" transform="translate(0,0)"/>
<path d="" fill="#FFFFFF" transform="translate(0,0)"/>
<path d="" fill="#FFFFFF" transform="translate(0,0)"/>
<path d="" fill="#FFFFFF" transform="translate(0,0)"/>
<path d="" fill="#FFFFFF" transform="translate(0,0)"/>
<path d="" fill="#FFFFFF" transform="translate(0,0)"/>
<path d="" fill="#FFFFFF" transform="translate(0,0)"/>
<path d="" fill="#FFFFFF" transform="translate(0,0)"/>
<path d="" fill="#FFFFFF" transform="translate(0,0)"/>
<path d="" fill="#FFFFFF" transform="translate(0,0)"/>
<path d="" fill="#FFFFFF" transform="translate(0,0)"/>
</svg>
